<svg xmlns="http://www.w3.org/2000/svg" xmlns:xlink="http://www.w3.org/1999/xlink" contentStyleType="text/css" data-diagram-type="DESCRIPTION" height="659px" preserveAspectRatio="none" style="width:2159px;height:659px;" version="1.1" viewBox="0 0 2159 659" width="2159px" zoomAndPan="magnify"><?plantuml 1.2026.3beta6?><defs/><g><g class="title" data-source-line="12"><text fill="#000000" font-family="'Segoe UI'" font-size="14" font-weight="700" lengthAdjust="spacing" textLength="270.1973" x="940.9599" y="22.9951">NeverUpdate System Architecture</text></g><!--cluster gui--><g class="cluster" data-qualified-name="gui" data-source-line="14" id="ent0002"><path d="M847.27,98.8569 L1097.2485,98.8569 A3.75,3.75 0 0 1 1099.7485,101.3569 L1106.7485,121.1537 L1109.27,121.1537 A2.5,2.5 0 0 1 1111.77,123.6537 L1111.77,472.5369 A2.5,2.5 0 0 1 1109.27,475.0369 L847.27,475.0369 A2.5,2.5 0 0 1 844.77,472.5369 L844.77,101.3569 A2.5,2.5 0 0 1 847.27,98.8569" fill="#F3E5F5" style="stroke:#666666;stroke-width:1.5;"/><line style="stroke:#666666;stroke-width:1.5;" x1="844.77" x2="1106.7485" y1="121.1537" y2="121.1537"/><text fill="#000000" font-family="'Segoe UI'" font-size="14" font-weight="700" lengthAdjust="spacing" textLength="248.9785" x="848.77" y="113.852">GUI Process (NeverUpdate.exe)</text></g><!--cluster daemon_pkg--><g class="cluster" data-qualified-name="daemon_pkg" data-source-line="22" id="ent0008"><path d="M1388.27,98.8569 L1740.7124,98.8569 A3.75,3.75 0 0 1 1743.2124,101.3569 L1750.2124,121.1537 L1750.27,121.1537 A2.5,2.5 0 0 1 1752.77,123.6537 L1752.77,472.5369 A2.5,2.5 0 0 1 1750.27,475.0369 L1388.27,475.0369 A2.5,2.5 0 0 1 1385.77,472.5369 L1385.77,101.3569 A2.5,2.5 0 0 1 1388.27,98.8569" fill="#E3F2FD" style="stroke:#666666;stroke-width:1.5;"/><line style="stroke:#666666;stroke-width:1.5;" x1="1385.77" x2="1750.2124" y1="121.1537" y2="121.1537"/><text fill="#000000" font-family="'Segoe UI'" font-size="14" font-weight="700" lengthAdjust="spacing" textLength="351.4424" x="1389.77" y="113.852">Daemon Process (neverupdate-daemon.exe)</text></g><!--cluster win--><g class="cluster" data-qualified-name="win" data-source-line="30" id="ent0014"><path d="M298.27,547.0369 L461.897,547.0369 A3.75,3.75 0 0 1 464.397,549.5369 L471.397,569.3338 L1690.27,569.3338 A2.5,2.5 0 0 1 1692.77,571.8338 L1692.77,641.8369 A2.5,2.5 0 0 1 1690.27,644.3369 L298.27,644.3369 A2.5,2.5 0 0 1 295.77,641.8369 L295.77,549.5369 A2.5,2.5 0 0 1 298.27,547.0369" fill="#FFF3E0" style="stroke:#666666;stroke-width:1.5;"/><line style="stroke:#666666;stroke-width:1.5;" x1="295.77" x2="471.397" y1="569.3338" y2="569.3338"/><text fill="#000000" font-family="'Segoe UI'" font-size="14" font-weight="700" lengthAdjust="spacing" textLength="162.627" x="299.77" y="562.032">Windows Subsystem</text></g><!--entity frontend--><g class="entity" data-qualified-name="gui.frontend" data-source-line="15" id="ent0003"><rect fill="#FEFEFE" height="46.2969" rx="2.5" ry="2.5" style="stroke:#181818;stroke-width:0.5;" width="199.4141" x="869.06" y="141.8569"/><rect fill="#FEFEFE" height="10" style="stroke:#181818;stroke-width:0.5;" width="15" x="1048.4741" y="146.8569"/><rect fill="#FEFEFE" height="2" style="stroke:#181818;stroke-width:0.5;" width="4" x="1046.4741" y="148.8569"/><rect fill="#FEFEFE" height="2" style="stroke:#181818;stroke-width:0.5;" width="4" x="1046.4741" y="152.8569"/><text fill="#000000" font-family="'Segoe UI'" font-size="14" lengthAdjust="spacing" textLength="159.4141" x="884.06" y="174.852">React 19 + Zustand UI</text></g><!--entity tauri_shell--><g class="entity" data-qualified-name="gui.tauri_shell" data-source-line="16" id="ent0004"><rect fill="#FEFEFE" height="62.5938" rx="2.5" ry="2.5" style="stroke:#181818;stroke-width:0.5;" width="166.5195" x="885.51" y="265.1469"/><rect fill="#FEFEFE" height="10" style="stroke:#181818;stroke-width:0.5;" width="15" x="1032.0295" y="270.1469"/><rect fill="#FEFEFE" height="2" style="stroke:#181818;stroke-width:0.5;" width="4" x="1030.0295" y="272.1469"/><rect fill="#FEFEFE" height="2" style="stroke:#181818;stroke-width:0.5;" width="4" x="1030.0295" y="276.1469"/><text fill="#000000" font-family="'Segoe UI'" font-size="14" lengthAdjust="spacing" textLength="87.6094" x="900.51" y="298.142">Tauri 2 Shell</text><text fill="#000000" font-family="'Segoe UI'" font-size="14" lengthAdjust="spacing" textLength="126.5195" x="900.51" y="314.4389">(Webview + Rust)</text></g><!--entity panel_core--><g class="entity" data-qualified-name="gui.panel_core" data-source-line="17" id="ent0005"><rect fill="#FEFEFE" height="46.2969" rx="2.5" ry="2.5" style="stroke:#181818;stroke-width:0.5;" width="153.0117" x="869.26" y="404.7469"/><rect fill="#FEFEFE" height="10" style="stroke:#181818;stroke-width:0.5;" width="15" x="1002.2717" y="409.7469"/><rect fill="#FEFEFE" height="2" style="stroke:#181818;stroke-width:0.5;" width="4" x="1000.2717" y="411.7469"/><rect fill="#FEFEFE" height="2" style="stroke:#181818;stroke-width:0.5;" width="4" x="1000.2717" y="415.7469"/><text fill="#000000" font-family="'Segoe UI'" font-size="14" lengthAdjust="spacing" textLength="113.0117" x="884.26" y="437.742">nu_core (linked)</text></g><!--entity scm--><g class="entity" data-qualified-name="daemon_pkg.scm" data-source-line="23" id="ent0009"><rect fill="#FEFEFE" height="46.2969" rx="2.5" ry="2.5" style="stroke:#181818;stroke-width:0.5;" width="163.2588" x="1441.14" y="141.8569"/><rect fill="#FEFEFE" height="10" style="stroke:#181818;stroke-width:0.5;" width="15" x="1584.3988" y="146.8569"/><rect fill="#FEFEFE" height="2" style="stroke:#181818;stroke-width:0.5;" width="4" x="1582.3988" y="148.8569"/><rect fill="#FEFEFE" height="2" style="stroke:#181818;stroke-width:0.5;" width="4" x="1582.3988" y="152.8569"/><text fill="#000000" font-family="'Segoe UI'" font-size="14" lengthAdjust="spacing" textLength="123.2588" x="1456.14" y="174.852">SCM Service Host</text></g><!--entity loop--><g class="entity" data-qualified-name="daemon_pkg.loop" data-source-line="24" id="ent0010"><rect fill="#FEFEFE" height="62.5938" rx="2.5" ry="2.5" style="stroke:#181818;stroke-width:0.5;" width="168.4268" x="1415.56" y="265.1469"/><rect fill="#FEFEFE" height="10" style="stroke:#181818;stroke-width:0.5;" width="15" x="1563.9868" y="270.1469"/><rect fill="#FEFEFE" height="2" style="stroke:#181818;stroke-width:0.5;" width="4" x="1561.9868" y="272.1469"/><rect fill="#FEFEFE" height="2" style="stroke:#181818;stroke-width:0.5;" width="4" x="1561.9868" y="276.1469"/><text fill="#000000" font-family="'Segoe UI'" font-size="14" lengthAdjust="spacing" textLength="128.4268" x="1430.56" y="298.142">Maintenance Loop</text><text fill="#000000" font-family="'Segoe UI'" font-size="14" lengthAdjust="spacing" textLength="88.3955" x="1430.56" y="314.4389">(~45s cycle)</text></g><!--entity daemon_core--><g class="entity" data-qualified-name="daemon_pkg.daemon_core" data-source-line="25" id="ent0011"><rect fill="#FEFEFE" height="46.2969" rx="2.5" ry="2.5" style="stroke:#181818;stroke-width:0.5;" width="153.0117" x="1410.26" y="404.7469"/><rect fill="#FEFEFE" height="10" style="stroke:#181818;stroke-width:0.5;" width="15" x="1543.2717" y="409.7469"/><rect fill="#FEFEFE" height="2" style="stroke:#181818;stroke-width:0.5;" width="4" x="1541.2717" y="411.7469"/><rect fill="#FEFEFE" height="2" style="stroke:#181818;stroke-width:0.5;" width="4" x="1541.2717" y="415.7469"/><text fill="#000000" font-family="'Segoe UI'" font-size="14" lengthAdjust="spacing" textLength="113.0117" x="1425.26" y="437.742">nu_core (linked)</text></g><!--entity reg--><g class="entity" data-qualified-name="win.reg" data-source-line="31" id="ent0015"><path d="M1160.78,592.5369 C1160.78,582.5369 1221.7693,582.5369 1221.7693,582.5369 C1221.7693,582.5369 1282.7585,582.5369 1282.7585,592.5369 L1282.7585,617.8338 C1282.7585,627.8338 1221.7693,627.8338 1221.7693,627.8338 C1221.7693,627.8338 1160.78,627.8338 1160.78,617.8338 L1160.78,592.5369" fill="#FFFDE8" style="stroke:#181818;stroke-width:0.5;"/><path d="M1160.78,592.5369 C1160.78,602.5369 1221.7693,602.5369 1221.7693,602.5369 C1221.7693,602.5369 1282.7585,602.5369 1282.7585,592.5369" fill="none" style="stroke:#181818;stroke-width:0.5;"/><text fill="#000000" font-family="'Segoe UI'" font-size="14" lengthAdjust="spacing" textLength="101.9785" x="1170.78" y="619.532">HKLM Registry</text></g><!--entity pdata--><g class="entity" data-qualified-name="win.pdata" data-source-line="32" id="ent0016"><path d="M716.06,592.5369 C716.06,582.5369 830.7695,582.5369 830.7695,582.5369 C830.7695,582.5369 945.4789,582.5369 945.4789,592.5369 L945.4789,617.8338 C945.4789,627.8338 830.7695,627.8338 830.7695,627.8338 C830.7695,627.8338 716.06,627.8338 716.06,617.8338 L716.06,592.5369" fill="#FFFDE8" style="stroke:#181818;stroke-width:0.5;"/><path d="M716.06,592.5369 C716.06,602.5369 830.7695,602.5369 830.7695,602.5369 C830.7695,602.5369 945.4789,602.5369 945.4789,592.5369" fill="none" style="stroke:#181818;stroke-width:0.5;"/><text fill="#000000" font-family="'Segoe UI'" font-size="14" lengthAdjust="spacing" textLength="209.4189" x="726.06" y="619.532">C:\ProgramData\NeverUpdate</text></g><!--entity scm_win--><g class="entity" data-qualified-name="win.scm_win" data-source-line="33" id="ent0017"><polygon fill="#E8F5E9" points="1500.45,592.0369,1510.45,582.0369,1677.0867,582.0369,1677.0867,618.3338,1667.0867,628.3338,1500.45,628.3338,1500.45,592.0369" style="stroke:#181818;stroke-width:0.5;"/><line style="stroke:#181818;stroke-width:0.5;" x1="1667.0867" x2="1677.0867" y1="592.0369" y2="582.0369"/><line style="stroke:#181818;stroke-width:0.5;" x1="1500.45" x2="1667.0867" y1="592.0369" y2="592.0369"/><line style="stroke:#181818;stroke-width:0.5;" x1="1667.0867" x2="1667.0867" y1="592.0369" y2="628.3338"/><text fill="#000000" font-family="'Segoe UI'" font-size="14" lengthAdjust="spacing" textLength="136.6367" x="1515.45" y="615.032">SCM (services.msc)</text></g><!--entity task_sched--><g class="entity" data-qualified-name="win.task_sched" data-source-line="34" id="ent0018"><polygon fill="#E8F5E9" points="1318.23,592.0369,1328.23,582.0369,1465.3013,582.0369,1465.3013,618.3338,1455.3013,628.3338,1318.23,628.3338,1318.23,592.0369" style="stroke:#181818;stroke-width:0.5;"/><line style="stroke:#181818;stroke-width:0.5;" x1="1455.3013" x2="1465.3013" y1="592.0369" y2="582.0369"/><line style="stroke:#181818;stroke-width:0.5;" x1="1318.23" x2="1455.3013" y1="592.0369" y2="592.0369"/><line style="stroke:#181818;stroke-width:0.5;" x1="1455.3013" x2="1455.3013" y1="592.0369" y2="628.3338"/><text fill="#000000" font-family="'Segoe UI'" font-size="14" lengthAdjust="spacing" textLength="107.0713" x="1333.23" y="615.032">Task Scheduler</text></g><!--entity net--><g class="entity" data-qualified-name="win.net" data-source-line="35" id="ent0019"><polygon fill="#E8F5E9" points="980.14,592.0369,990.14,582.0369,1125.3929,582.0369,1125.3929,618.3338,1115.3929,628.3338,980.14,628.3338,980.14,592.0369" style="stroke:#181818;stroke-width:0.5;"/><line style="stroke:#181818;stroke-width:0.5;" x1="1115.3929" x2="1125.3929" y1="592.0369" y2="582.0369"/><line style="stroke:#181818;stroke-width:0.5;" x1="980.14" x2="1115.3929" y1="592.0369" y2="592.0369"/><line style="stroke:#181818;stroke-width:0.5;" x1="1115.3929" x2="1115.3929" y1="592.0369" y2="628.3338"/><text fill="#000000" font-family="'Segoe UI'" font-size="14" lengthAdjust="spacing" textLength="105.2529" x="995.14" y="615.032">hosts / Firewall</text></g><!--entity sdist--><g class="entity" data-qualified-name="win.sdist" data-source-line="36" id="ent0020"><polygon fill="#E8F5E9" points="311.8,592.0369,321.8,582.0369,495.7443,582.0369,495.7443,618.3338,485.7443,628.3338,311.8,628.3338,311.8,592.0369" style="stroke:#181818;stroke-width:0.5;"/><line style="stroke:#181818;stroke-width:0.5;" x1="485.7443" x2="495.7443" y1="592.0369" y2="582.0369"/><line style="stroke:#181818;stroke-width:0.5;" x1="311.8" x2="485.7443" y1="592.0369" y2="592.0369"/><line style="stroke:#181818;stroke-width:0.5;" x1="485.7443" x2="485.7443" y1="592.0369" y2="628.3338"/><text fill="#000000" font-family="'Segoe UI'" font-size="14" lengthAdjust="spacing" textLength="143.9443" x="326.8" y="615.032">SoftwareDistribution</text></g><!--entity ti_svc--><g class="entity" data-qualified-name="win.ti_svc" data-source-line="37" id="ent0021"><polygon fill="#E8F5E9" points="530.78,592.0369,540.78,582.0369,680.7566,582.0369,680.7566,618.3338,670.7566,628.3338,530.78,628.3338,530.78,592.0369" style="stroke:#181818;stroke-width:0.5;"/><line style="stroke:#181818;stroke-width:0.5;" x1="670.7566" x2="680.7566" y1="592.0369" y2="582.0369"/><line style="stroke:#181818;stroke-width:0.5;" x1="530.78" x2="670.7566" y1="592.0369" y2="592.0369"/><line style="stroke:#181818;stroke-width:0.5;" x1="670.7566" x2="670.7566" y1="592.0369" y2="628.3338"/><text fill="#000000" font-family="'Segoe UI'" font-size="14" lengthAdjust="spacing" textLength="109.9766" x="545.78" y="615.032">TrustedInstaller</text></g><g class="entity" data-qualified-name="GMN36" data-source-line="59" id="ent0037"><path d="M1776.89,144.8669 L1776.89,185.1325 L1950.64,185.1325 L1950.64,154.8669 L1940.64,144.8669 L1776.89,144.8669" fill="#FEFFDD" style="stroke:#181818;stroke-width:0.5;"/><path d="M1940.64,144.8669 L1940.64,154.8669 L1950.64,154.8669 L1940.64,144.8669" fill="#FEFFDD" style="stroke:#181818;stroke-width:1;"/><text fill="#000000" font-family="'Segoe UI'" font-size="13" lengthAdjust="spacing" textLength="125.0933" x="1782.89" y="161.9338">Runs as interactive</text><text fill="#000000" font-family="'Segoe UI'" font-size="13" lengthAdjust="spacing" textLength="152.75" x="1782.89" y="177.0666">elevated process (UAC)</text></g><g class="entity" data-qualified-name="GMN39" data-source-line="64" id="ent0040"><path d="M1985.43,144.8669 L1985.43,185.1325 L2144.117,185.1325 L2144.117,154.8669 L2134.117,144.8669 L1985.43,144.8669" fill="#FEFFDD" style="stroke:#181818;stroke-width:0.5;"/><path d="M2134.117,144.8669 L2134.117,154.8669 L2144.117,154.8669 L2134.117,144.8669" fill="#FEFFDD" style="stroke:#181818;stroke-width:1;"/><text fill="#000000" font-family="'Segoe UI'" font-size="13" lengthAdjust="spacing" textLength="137.687" x="1991.43" y="161.9338">Runs as LocalSystem</text><text fill="#000000" font-family="'Segoe UI'" font-size="13" lengthAdjust="spacing" textLength="109.0146" x="1991.43" y="177.0666">Windows service</text></g><!--link frontend to tauri_shell--><g class="link" data-entity-1="ent0003" data-entity-2="ent0004" data-link-type="dependency" data-source-line="18" id="lnk6"><path d="M968.77,188.5469 C968.77,209.6969 968.77,235.4969 968.77,258.9169" fill="none" id="frontend-to-tauri_shell" style="stroke:#181818;stroke-width:1.5;"/><polygon fill="#181818" points="968.77,264.9169,972.77,255.9169,968.77,259.9169,964.77,255.9169,968.77,264.9169" style="stroke:#181818;stroke-width:1.5;"/><text fill="#000000" font-family="'Segoe UI'" font-size="13" lengthAdjust="spacing" textLength="67.9072" x="969.77" y="231.2138">IPC invoke</text></g><!--link tauri_shell to panel_core--><g class="link" data-entity-1="ent0004" data-entity-2="ent0005" data-link-type="dependency" data-source-line="19" id="lnk7"><path d="M963.32,328.1269 C959.15,351.5969 954.5394,377.5194 950.7894,398.6294" fill="none" id="tauri_shell-to-panel_core" style="stroke:#181818;stroke-width:1.5;"/><polygon fill="#181818" points="949.74,404.5369,955.2525,396.3752,950.6145,399.6139,947.3758,394.976,949.74,404.5369" style="stroke:#181818;stroke-width:1.5;"/><text fill="#000000" font-family="'Segoe UI'" font-size="13" lengthAdjust="spacing" textLength="63.9209" x="959.77" y="370.8138">direct call</text></g><!--link scm to loop--><g class="link" data-entity-1="ent0009" data-entity-2="ent0010" data-link-type="dependency" data-source-line="26" id="lnk12"><path d="M1518.76,188.5469 C1515,209.6969 1510.4118,235.5898 1506.2418,259.0098" fill="none" id="scm-to-loop" style="stroke:#181818;stroke-width:1.5;"/><polygon fill="#181818" points="1505.19,264.9169,1510.7057,256.7574,1506.0665,259.9943,1502.8296,255.355,1505.19,264.9169" style="stroke:#181818;stroke-width:1.5;"/><text fill="#000000" font-family="'Segoe UI'" font-size="13" lengthAdjust="spacing" textLength="90.7969" x="1514.77" y="231.2138">spawn worker</text></g><!--link loop to daemon_core--><g class="link" data-entity-1="ent0010" data-entity-2="ent0011" data-link-type="dependency" data-source-line="27" id="lnk13"><path d="M1496.69,328.1269 C1494.33,351.5969 1491.7295,377.4569 1489.6095,398.5669" fill="none" id="loop-to-daemon_core" style="stroke:#181818;stroke-width:1.5;"/><polygon fill="#181818" points="1489.01,404.5369,1493.8893,395.9816,1489.5096,399.5619,1485.9293,395.1822,1489.01,404.5369" style="stroke:#181818;stroke-width:1.5;"/><text fill="#000000" font-family="'Segoe UI'" font-size="13" lengthAdjust="spacing" textLength="163.7314" x="1494.77" y="370.8138">run_maintenance_cycle()</text></g><!--link panel_core to reg--><g class="link" data-entity-1="ent0005" data-entity-2="ent0015" data-link-type="dependency" data-source-line="40" id="lnk22"><path d="M991.45,451.4869 C1015.77,464.2569 1045.74,481.2069 1070.77,499.0369 C1088.2,511.4569 1087.71,521.2969 1106.77,531.0369 C1121.36,538.4969 1128.04,531.8469 1142.77,539.0369 C1164.82,549.8069 1181.7355,563.7273 1196.6255,578.1173" fill="none" id="panel_core-to-reg" style="stroke:#181818;stroke-width:1.5;"/><polygon fill="#181818" points="1200.94,582.2869,1197.248,573.1562,1197.3446,578.8122,1191.6886,578.9088,1200.94,582.2869" style="stroke:#181818;stroke-width:1.5;"/><text fill="#000000" font-family="'Segoe UI'" font-size="13" lengthAdjust="spacing" textLength="81.0913" x="1114.0764" y="512.1038">TI-privileged</text><text fill="#000000" font-family="'Segoe UI'" font-size="13" lengthAdjust="spacing" textLength="93.7041" x="1107.77" y="527.2366">registry writes</text></g><!--link panel_core to pdata--><g class="link" data-entity-1="ent0005" data-entity-2="ent0016" data-link-type="dependency" data-source-line="41" id="lnk23"><path d="M869.12,429.8969 C757.47,433.1769 558.51,446.4469 513.77,499.0369 C504.55,509.8769 503.93,520.7669 513.77,531.0369 C527.92,545.8169 677.94,533.9869 697.77,539.0369 C733.02,548.0269 764.7583,563.952 790.7283,579.112" fill="none" id="panel_core-to-pdata" style="stroke:#181818;stroke-width:1.5;"/><polygon fill="#181818" points="795.91,582.1369,790.154,574.1451,791.5919,579.6162,786.1208,581.0541,795.91,582.1369" style="stroke:#181818;stroke-width:1.5;"/><text fill="#000000" font-family="'Segoe UI'" font-size="13" lengthAdjust="spacing" textLength="90.2891" x="514.77" y="519.6038">state / history</text></g><!--link panel_core to net--><g class="link" data-entity-1="ent0005" data-entity-2="ent0019" data-link-type="dependency" data-source-line="42" id="lnk24"><path d="M877.03,451.3569 C829.5,470.3469 779.79,499.4469 809.77,531.0369 C821.49,543.3869 946.72,533.3769 962.77,539.0369 C988.23,548.0269 1008.2675,562.6897 1025.2675,577.7397" fill="none" id="panel_core-to-net" style="stroke:#181818;stroke-width:1.5;"/><polygon fill="#181818" points="1029.76,581.7169,1025.6727,572.7562,1026.0163,578.4026,1020.3699,578.7461,1029.76,581.7169" style="stroke:#181818;stroke-width:1.5;"/><text fill="#000000" font-family="'Segoe UI'" font-size="13" lengthAdjust="spacing" textLength="90.3398" x="810.77" y="519.6038">hosts + netsh</text></g><!--link panel_core to ti_svc--><g class="link" data-entity-1="ent0005" data-entity-2="ent0021" data-link-type="dependency" data-source-line="43" id="lnk25"><path d="M868.81,430.5269 C689.6,435.1269 256.3,451.1469 212.77,499.0369 C203.2,509.5669 202.85,520.8469 212.77,531.0369 C224.4,542.9869 496.94,533.8169 512.77,539.0369 C539.16,547.7569 560.158,562.7164 577.768,577.9164" fill="none" id="panel_core-to-ti_svc" style="stroke:#181818;stroke-width:1.5;"/><polygon fill="#181818" points="582.31,581.8369,578.1106,572.9282,578.525,578.5698,572.8833,578.9842,582.31,581.8369" style="stroke:#181818;stroke-width:1.5;"/><text fill="#000000" font-family="'Segoe UI'" font-size="13" lengthAdjust="spacing" textLength="122.8462" x="213.77" y="519.6038">impersonate token</text></g><!--link panel_core to task_sched--><g class="link" data-entity-1="ent0005" data-entity-2="ent0018" data-link-type="dependency" data-source-line="44" id="lnk26"><path d="M1016.22,451.5269 C1062.71,465.4469 1125.25,482.2469 1181.77,491.0369 C1198.92,493.7069 1323.19,489.6169 1337.77,499.0369 C1366.55,517.6469 1379.2681,550.9053 1385.6681,575.8353" fill="none" id="panel_core-to-task_sched" style="stroke:#181818;stroke-width:1.5;"/><polygon fill="#181818" points="1387.16,581.6469,1388.7965,571.9349,1385.9167,576.8039,1381.0477,573.9242,1387.16,581.6469" style="stroke:#181818;stroke-width:1.5;"/><text fill="#000000" font-family="'Segoe UI'" font-size="13" lengthAdjust="spacing" textLength="68.1992" x="1366.77" y="519.6038">XML patch</text></g><!--link daemon_core to reg--><g class="link" data-entity-1="ent0011" data-entity-2="ent0015" data-link-type="dependency" data-source-line="46" id="lnk27"><path d="M1485.08,451.4369 C1481.96,475.4869 1473.07,512.5769 1447.77,531.0369 C1434.55,540.6769 1316.01,533.0969 1300.77,539.0369 C1277.42,548.1469 1260.0053,562.6876 1245.3153,577.7776" fill="none" id="daemon_core-to-reg" style="stroke:#181818;stroke-width:1.5;"/><polygon fill="#181818" points="1241.13,582.0769,1250.2741,578.4182,1244.6177,578.4942,1244.5418,572.8378,1241.13,582.0769" style="stroke:#181818;stroke-width:1.5;"/><text fill="#000000" font-family="'Segoe UI'" font-size="13" lengthAdjust="spacing" textLength="81.0913" x="1479.0764" y="512.1038">TI-privileged</text><text fill="#000000" font-family="'Segoe UI'" font-size="13" lengthAdjust="spacing" textLength="93.7041" x="1472.77" y="527.2366">registry writes</text></g><!--link daemon_core to pdata--><g class="link" data-entity-1="ent0011" data-entity-2="ent0016" data-link-type="dependency" data-source-line="47" id="lnk28"><path d="M1454.7,451.2569 C1432.09,465.6469 1400.5,483.0869 1369.77,491.0369 C1323.29,503.0769 981.95,480.2569 937.77,499.0369 C919.26,506.9069 920.08,516.9069 905.77,531.0369 C888.3,548.2969 872.7043,563.5168 857.7943,577.9968" fill="none" id="daemon_core-to-pdata" style="stroke:#181818;stroke-width:1.5;"/><polygon fill="#181818" points="853.49,582.1769,862.7331,578.7762,857.0769,578.6934,857.1596,573.0372,853.49,582.1769" style="stroke:#181818;stroke-width:1.5;"/><text fill="#000000" font-family="'Segoe UI'" font-size="13" lengthAdjust="spacing" textLength="123.1636" x="938.77" y="519.6038">snapshot + history</text></g><!--link daemon_core to net--><g class="link" data-entity-1="ent0011" data-entity-2="ent0019" data-link-type="dependency" data-source-line="48" id="lnk29"><path d="M1453.59,451.4469 C1431.01,465.5269 1399.87,482.5369 1369.77,491.0369 C1342.34,498.7869 1268.08,488.0869 1241.77,499.0369 C1222.01,507.2669 1225.25,522.1669 1205.77,531.0369 C1180.49,542.5569 1169.62,528.8669 1143.77,539.0369 C1118.82,548.8569 1098.8953,563.1353 1081.6153,577.7953" fill="none" id="daemon_core-to-net" style="stroke:#181818;stroke-width:1.5;"/><polygon fill="#181818" points="1077.04,581.6769,1086.4907,578.9047,1080.8527,578.4422,1081.3152,572.8043,1077.04,581.6769" style="stroke:#181818;stroke-width:1.5;"/><text fill="#000000" font-family="'Segoe UI'" font-size="13" lengthAdjust="spacing" textLength="90.3398" x="1242.77" y="519.6038">hosts + netsh</text></g><!--link daemon_core to ti_svc--><g class="link" data-entity-1="ent0011" data-entity-2="ent0021" data-link-type="dependency" data-source-line="49" id="lnk30"><path d="M1454.71,451.3269 C1432.12,465.7469 1400.52,483.1969 1369.77,491.0369 C1350.9,495.8569 685.66,489.3469 668.77,499.0369 C637.76,516.8369 622.2031,550.87 613.8731,576.07" fill="none" id="daemon_core-to-ti_svc" style="stroke:#181818;stroke-width:1.5;"/><polygon fill="#181818" points="611.99,581.7669,618.6126,574.477,613.5593,577.0195,611.0168,571.9662,611.99,581.7669" style="stroke:#181818;stroke-width:1.5;"/><text fill="#000000" font-family="'Segoe UI'" font-size="13" lengthAdjust="spacing" textLength="122.8462" x="669.77" y="519.6038">impersonate token</text></g><!--link daemon_core to task_sched--><g class="link" data-entity-1="ent0011" data-entity-2="ent0018" data-link-type="dependency" data-source-line="50" id="lnk31"><path d="M1536.1,451.4769 C1574.07,471.8269 1615.98,502.7969 1589.77,531.0369 C1581.66,539.7769 1493.98,534.9769 1482.77,539.0369 C1457.38,548.2469 1437.266,562.7394 1420.046,577.6494" fill="none" id="daemon_core-to-task_sched" style="stroke:#181818;stroke-width:1.5;"/><polygon fill="#181818" points="1415.51,581.5769,1424.9323,578.7096,1419.29,578.304,1419.6956,572.6617,1415.51,581.5769" style="stroke:#181818;stroke-width:1.5;"/><text fill="#000000" font-family="'Segoe UI'" font-size="13" lengthAdjust="spacing" textLength="68.1992" x="1599.77" y="519.6038">XML patch</text></g><!--link tauri_shell to scm_win--><g class="link" data-entity-1="ent0004" data-entity-2="ent0017" data-link-type="dependency" data-source-line="52" id="lnk32"><path d="M1000.45,327.9069 C1050.25,373.4869 1152.01,457.6569 1256.77,491.0369 C1273.61,496.4069 1561.62,487.2269 1574.77,499.0369 C1597.51,519.4669 1597.4862,551.6754 1594.0662,575.9754" fill="none" id="tauri_shell-to-scm_win" style="stroke:#181818;stroke-width:1.5;stroke-dasharray:7,7;"/><polygon fill="#181818" points="1593.23,581.9169,1598.4453,573.5622,1593.9268,576.9657,1590.5233,572.4472,1593.23,581.9169" style="stroke:#181818;stroke-width:1.5;"/><text fill="#000000" font-family="'Segoe UI'" font-size="13" lengthAdjust="spacing" textLength="101.8545" x="1274.8325" y="424.9538">register / start /</text><text fill="#000000" font-family="'Segoe UI'" font-size="13" lengthAdjust="spacing" textLength="135.9795" x="1257.77" y="440.0866">stop daemon service</text></g><!--link scm_win to scm--><g class="link" data-entity-1="ent0017" data-entity-2="ent0009" data-link-type="dependency" data-source-line="53" id="lnk33"><path d="M1629.23,581.8369 C1647.34,569.4669 1666.81,552.2669 1676.77,531.0369 C1709.54,461.1969 1683.36,433.0869 1666.77,357.7469 C1652.5,292.9369 1656.86,268.6169 1613.77,218.1469 C1603.48,206.0969 1594.9004,199.1745 1581.1504,191.3845" fill="none" id="scm_win-to-scm" style="stroke:#181818;stroke-width:1.5;"/><polygon fill="#181818" points="1575.93,188.4269,1581.7889,196.3435,1580.2803,190.8915,1585.7323,189.383,1575.93,188.4269" style="stroke:#181818;stroke-width:1.5;"/><text fill="#000000" font-family="'Segoe UI'" font-size="13" lengthAdjust="spacing" textLength="173.3735" x="1670.77" y="370.8138">StartServiceCtrlDispatcher</text></g><!--link panel_core to sdist--><g class="link" data-entity-1="ent0005" data-entity-2="ent0020" data-link-type="dependency" data-source-line="55" id="lnk34"><path d="M869.11,429.2869 C666.89,431.1369 130.88,441.4669 77.77,499.0369 C6,576.8469 185.6457,597.0247 305.4357,602.2647" fill="none" id="panel_core-to-sdist" style="stroke:#181818;stroke-width:1.5;"/><polygon fill="#181818" points="311.43,602.5269,302.6134,598.1374,306.4348,602.3084,302.2638,606.1297,311.43,602.5269" style="stroke:#181818;stroke-width:1.5;"/><text fill="#000000" font-family="'Segoe UI'" font-size="13" lengthAdjust="spacing" textLength="95.7925" x="90.1609" y="512.1038">extreme mode</text><text fill="#000000" font-family="'Segoe UI'" font-size="13" lengthAdjust="spacing" textLength="118.5742" x="78.77" y="527.2366">(delete + replace)</text></g><!--link daemon_core to sdist--><g class="link" data-entity-1="ent0011" data-entity-2="ent0020" data-link-type="dependency" data-source-line="56" id="lnk35"><path d="M1454.72,451.3569 C1432.13,465.7869 1400.54,483.2369 1369.77,491.0369 C1356.74,494.3469 411.24,489.4969 401.77,499.0369 C380.55,520.4269 385.6994,552.2098 393.3294,576.1698" fill="none" id="daemon_core-to-sdist" style="stroke:#181818;stroke-width:1.5;"/><polygon fill="#181818" points="395.15,581.8869,396.2305,572.0975,393.6328,577.1226,388.6077,574.5249,395.15,581.8869" style="stroke:#181818;stroke-width:1.5;"/><text fill="#000000" font-family="'Segoe UI'" font-size="13" lengthAdjust="spacing" textLength="95.7925" x="402.77" y="519.6038">extreme mode</text></g><!--link gui to GMN36--><g class="link" data-entity-1="ent0002" data-entity-2="ent0037" data-link-type="association" data-source-line="59" id="lnk38"><path d="M1112.1138,161.3145 C1112.2666,161.2479 1112.4215,161.1805 1112.5783,161.1122 C1112.8919,160.9757 1113.2135,160.836 1113.5428,160.6931 C1114.2014,160.4072 1114.8913,160.1085 1115.6117,159.7975 C1121.3752,157.3094 1129.0951,154.0306 1138.442,150.1844 C1157.1359,142.4919 1182.3381,132.5294 1211.4138,122.0819 C1269.565,101.1869 1343.21,78.3519 1411.27,67.8569 C1484.18,56.6069 1673.7,43.2969 1743.27,67.8569 C1786.35,83.0569 1825.35,120.9069 1846.69,144.6269" fill="none" id="gui-GMN36" style="stroke:#181818;stroke-width:1.5;stroke-dasharray:7,7;"/></g><!--link daemon_pkg to GMN39--><g class="link" data-entity-1="ent0008" data-entity-2="ent0040" data-link-type="association" data-source-line="64" id="lnk41"><path d="M1749.5446,119.6687 C1749.7991,119.0368 1750.4373,96.2247 1750.7064,95.6018 C1751.7829,93.1104 1752.9777,90.6958 1754.3031,88.3889 C1759.605,79.1612 1766.9975,71.6569 1777.27,67.8569 C1813.33,54.5169 1914.18,54.6069 1950.27,67.8569 C1991.87,83.1269 2028.71,120.9569 2048.77,144.6469" fill="none" id="daemon_pkg-GMN39" style="stroke:#181818;stroke-width:1.5;stroke-dasharray:7,7;"/></g><?plantuml-src bLLTZzeu57tFhxYYBw0HJ3kpZDfvgDJoqQATgQfXHgrsgP19Beb5OaUs0qNLxc_liSD7sgOhhNW1-zoFStpknMwaAeKH1Qr4l4cDhbGoqhasv8nG5bUiN6HFg8JNeihTL2ltGHHCdJcdckbfrcc0R2OIlPCgfRN8BJTkObsKMY7btErpfgh8hngtmXYzUynal55iBRqO31kN9VeJAR_L9c5Jj_ZivkQc1V4JaMVJb_xJriMlq8d_DFaA9rR2jYITJiUJPbAbarzHavVJuUHL53dfGFS3RzaybSZ9DDzRnmMzCN4c7SUkCXn51mRKUVSqeuz6nrw6RYDim5-vro5XAQqachYU3AT3-XOH_Vt08dRquXLTq5-LTK8bU9Kl7hesU2rMYKSzYif8kg9vndc-KDrFlDfAtY7e0K6zW7SUixGUuKDKjOorOUhcKcqugJ6bK9o7Sq2E1QZVVzsCfbkQVHoHL5kzyRZcbOUUam2PI0CPA1Qe-az3Yh7WGgkp6ighKGKr-acuEujI_rwMcnJINq-lfkDQc_dedkPijZ9cUg-j2nHiNFYxUo5zyqBXxaxh4gBy-yVGKhoFSwx9vZZ-hHA7cWSfa3HGyo4WXG7QATffis63st3ghnj1G9bABOjp6yjGkjlxGOPFKc6cBCshbGtM2OGnPC6ArvFdWUdHhjHv_-VTFJrmAgqp-u0rdFw06Dqk5b0rXNd7E5mi6ZuB0VwRG8XtDWOT6dPjBQ8T53Qk9GVX9ReumHw5tT0ypZYfSZQTsazsixJ-w8JAy0YMBccAHz_XnGDEiJjNqsktm_8P-_xbgd9IgxfUWfDpDGFNSZ9JC7n-gWUFRUDQlPF1-b1FGNce0CKVP_tIoAtCEULaeSn19zeP3ADjYmjY-1TrVdelAKE0DlisA7W0M5EyyBzirWQhsmHI5YKRgvLFx30fgXLz4X4Hd-_lC3mkpgAewQJ_nR4jy4HIYT9csg7z8yysU1lHDjn_C6s5_uPgStqC1g-FrlC35BYnmRlWVOoZomKSWLchqzF1jj4nme-WdzHRcdluOJMCdCdXjr0Duzhs2i5z2EElpZ3-_Wgu40iZuPn1wGADbBc8kTVAgoquYfH6f95fvaYl_Lg7kHygPRsJ_KemMEjowtSBYcoXN4BbSHS-lHdr8hzuVPAVKvsNOIFZdSQ2hVzxS7fSAaTzZgc-0m00?></g></svg>