<svg xmlns="http://www.w3.org/2000/svg" xmlns:xlink="http://www.w3.org/1999/xlink" contentStyleType="text/css" data-diagram-type="ACTIVITY" height="1405px" preserveAspectRatio="none" style="width:550px;height:1405px;" version="1.1" viewBox="0 0 550 1405" width="550px" zoomAndPan="magnify"><?plantuml 1.2026.3beta6?><defs/><rect width="100%" height="100%" fill="white"/><g><g class="title" data-source-line="7"><text fill="#000000" font-family="'Segoe UI'" font-size="14" font-weight="700" lengthAdjust="spacing" textLength="217.9844" x="165.1318" y="32.9951">Daemon Maintenance Cycle</text></g><ellipse cx="240.6577" cy="62.2969" fill="#222222" rx="10" ry="10" style="stroke:#222222;stroke-width:1;"/><rect fill="#FEFEFE" height="33.9688" rx="12.5" ry="12.5" style="stroke:#666666;stroke-width:0.5;" width="153.6465" x="163.8345" y="92.2969"/><text fill="#000000" font-family="'Segoe UI'" font-size="12" lengthAdjust="spacing" textLength="133.6465" x="173.8345" y="113.4355">run_preflight_checks()</text><polygon fill="#FEFEFE" points="193.2605,146.2656,288.0549,146.2656,300.0549,158.2656,288.0549,170.2656,193.2605,170.2656,181.2605,158.2656,193.2605,146.2656" style="stroke:#666666;stroke-width:0.5;"/><text fill="#000000" font-family="'Segoe UI'" font-size="11" lengthAdjust="spacing" textLength="94.7944" x="193.2605" y="162.0737">preflight passed?</text><text fill="#000000" font-family="'Segoe UI'" font-size="11" lengthAdjust="spacing" textLength="19.0083" x="162.2522" y="155.6714">yes</text><text fill="#000000" font-family="'Segoe UI'" font-size="11" lengthAdjust="spacing" textLength="13.7017" x="300.0549" y="155.6714">no</text><rect fill="#FEFEFE" height="47.9375" rx="12.5" ry="12.5" style="stroke:#666666;stroke-width:0.5;" width="231.8574" x="16" y="180.2656"/><text fill="#000000" font-family="'Segoe UI'" font-size="12" lengthAdjust="spacing" textLength="153.6211" x="26" y="201.4043">acquire_global_instance()</text><text fill="#000000" font-family="'Segoe UI'" font-size="12" lengthAdjust="spacing" textLength="211.8574" x="26" y="215.373">"Global\NeverUpdateDaemonMain"</text><rect fill="#FEFEFE" height="33.9688" rx="12.5" ry="12.5" style="stroke:#666666;stroke-width:0.5;" width="207.4004" x="28.2285" y="310.5742"/><text fill="#000000" font-family="'Segoe UI'" font-size="12" lengthAdjust="spacing" textLength="187.4004" x="38.2285" y="331.7129">exit (another instance running)</text><ellipse cx="131.9287" cy="381.5273" fill="none" rx="11" ry="11" style="stroke:#222222;stroke-width:1;"/><ellipse cx="131.9287" cy="381.5273" fill="#222222" rx="6" ry="6" style="stroke:#222222;stroke-width:1;"/><polygon fill="#FEFEFE" points="85.5869,262.1719,178.2705,262.1719,190.2705,274.1719,178.2705,286.1719,85.5869,286.1719,73.5869,274.1719,85.5869,262.1719" style="stroke:#666666;stroke-width:0.5;"/><text fill="#000000" font-family="'Segoe UI'" font-size="11" lengthAdjust="spacing" textLength="13.7017" x="135.9287" y="296.3823">no</text><text fill="#000000" font-family="'Segoe UI'" font-size="11" lengthAdjust="spacing" textLength="92.6836" x="85.5869" y="277.98">mutex acquired?</text><text fill="#000000" font-family="'Segoe UI'" font-size="11" lengthAdjust="spacing" textLength="19.0083" x="190.2705" y="271.5776">yes</text><rect fill="#FEFEFE" height="33.9688" rx="12.5" ry="12.5" style="stroke:#666666;stroke-width:0.5;" width="143.5156" x="277.6289" y="180.2656"/><text fill="#000000" font-family="'Segoe UI'" font-size="12" lengthAdjust="spacing" textLength="123.5156" x="287.6289" y="201.4043">exit (preflight failed)</text><ellipse cx="349.3867" cy="259.2031" fill="none" rx="11" ry="11" style="stroke:#222222;stroke-width:1;"/><ellipse cx="349.3867" cy="259.2031" fill="#222222" rx="6" ry="6" style="stroke:#222222;stroke-width:1;"/><path d="M329.3013,482.9453 L329.3013,491.5117 L309.3013,495.5117 L329.3013,499.5117 L329.3013,508.0781 A0,0 0 0 0 329.3013,508.0781 L503.248,508.0781 A0,0 0 0 0 503.248,508.0781 L503.248,492.9453 L493.248,482.9453 L329.3013,482.9453 A0,0 0 0 0 329.3013,482.9453" fill="#FEFFDD" style="stroke:#181818;stroke-width:0.5;"/><path d="M493.248,482.9453 L493.248,492.9453 L503.248,492.9453 L493.248,482.9453" fill="#FEFFDD" style="stroke:#181818;stroke-width:0.5;"/><text fill="#000000" font-family="'Segoe UI'" font-size="13" lengthAdjust="spacing" textLength="152.9468" x="335.3013" y="500.0122">Admin -&gt; SYSTEM -&gt; TI</text><rect fill="#FEFEFE" height="33.9688" rx="12.5" ry="12.5" style="stroke:#666666;stroke-width:0.5;" width="137.2871" x="172.0142" y="478.5273"/><text fill="#000000" font-family="'Segoe UI'" font-size="12" lengthAdjust="spacing" textLength="117.2871" x="182.0142" y="499.666">TiService::acquire()</text><rect fill="#FEFEFE" height="47.9375" rx="12.5" ry="12.5" style="stroke:#666666;stroke-width:0.5;" width="123.4121" x="178.9517" y="532.4961"/><text fill="#000000" font-family="'Segoe UI'" font-size="12" lengthAdjust="spacing" textLength="103.4121" x="188.9517" y="553.6348">load_state() from</text><text fill="#000000" font-family="'Segoe UI'" font-size="12" lengthAdjust="spacing" textLength="58.7461" x="188.9517" y="567.6035">state.json</text><rect fill="none" height="428.9766" style="stroke:#000000;stroke-width:1.5;" width="274.8301" x="115.2427" y="591.2354"/><path d="M377.8169,591.2354 L377.8169,600.5322 L367.8169,610.5322 L115.2427,610.5322" fill="none" style="stroke:#000000;stroke-width:1.5;"/><text fill="#000000" font-family="'Segoe UI'" font-size="14" lengthAdjust="spacing" textLength="252.5742" x="118.2427" y="605.2305">for each GuardPoint (batch_eligible)</text><rect fill="#FEFEFE" height="33.9688" rx="12.5" ry="12.5" style="stroke:#666666;stroke-width:0.5;" width="182.5332" x="149.3911" y="627.5322"/><text fill="#000000" font-family="'Segoe UI'" font-size="12" lengthAdjust="spacing" textLength="162.5332" x="159.3911" y="648.6709">check_guard() -- pre status</text><rect fill="#FEFEFE" height="33.9688" rx="12.5" ry="12.5" style="stroke:#666666;stroke-width:0.5;" width="157.2676" x="162.0239" y="681.501"/><text fill="#000000" font-family="'Segoe UI'" font-size="12" lengthAdjust="spacing" textLength="137.2676" x="172.0239" y="702.6396">execute_action(Guard)</text><rect fill="#FEFEFE" height="33.9688" rx="12.5" ry="12.5" style="stroke:#666666;stroke-width:0.5;" width="190.8301" x="145.2427" y="832.2744"/><text fill="#000000" font-family="'Segoe UI'" font-size="12" lengthAdjust="spacing" textLength="170.8301" x="155.2427" y="853.4131">append_interception_entry()</text><polygon fill="#FEFEFE" points="166.1284,783.8721,315.187,783.8721,327.187,795.8721,315.187,807.8721,166.1284,807.8721,154.1284,795.8721,166.1284,783.8721" style="stroke:#666666;stroke-width:0.5;"/><text fill="#000000" font-family="'Segoe UI'" font-size="11" lengthAdjust="spacing" textLength="19.0083" x="244.6577" y="818.0825">yes</text><text fill="#000000" font-family="'Segoe UI'" font-size="11" lengthAdjust="spacing" textLength="149.0586" x="166.1284" y="799.6802">has interception_behavior?</text><polygon fill="#FEFEFE" points="240.6577,886.2432,252.6577,898.2432,240.6577,910.2432,228.6577,898.2432,240.6577,886.2432" style="stroke:#666666;stroke-width:0.5;"/><polygon fill="#FEFEFE" points="180.5068,735.4697,300.8086,735.4697,312.8086,747.4697,300.8086,759.4697,180.5068,759.4697,168.5068,747.4697,180.5068,735.4697" style="stroke:#666666;stroke-width:0.5;"/><text fill="#000000" font-family="'Segoe UI'" font-size="11" lengthAdjust="spacing" textLength="19.0083" x="244.6577" y="769.6802">yes</text><text fill="#000000" font-family="'Segoe UI'" font-size="11" lengthAdjust="spacing" textLength="120.3018" x="180.5068" y="751.2778">was !guarded before?</text><polygon fill="#FEFEFE" points="240.6577,930.2432,252.6577,942.2432,240.6577,954.2432,228.6577,942.2432,240.6577,930.2432" style="stroke:#666666;stroke-width:0.5;"/><rect fill="#FEFEFE" height="33.9688" rx="12.5" ry="12.5" style="stroke:#666666;stroke-width:0.5;" width="159.5586" x="160.8784" y="974.2432"/><text fill="#000000" font-family="'Segoe UI'" font-size="12" lengthAdjust="spacing" textLength="139.5586" x="170.8784" y="995.3818">append_history_entry()</text><rect fill="#FEFEFE" height="33.9688" rx="12.5" ry="12.5" style="stroke:#666666;stroke-width:0.5;" width="93.8516" x="193.7319" y="1040.2119"/><text fill="#000000" font-family="'Segoe UI'" font-size="12" lengthAdjust="spacing" textLength="73.8516" x="203.7319" y="1061.3506">save_state()</text><rect fill="#FEFEFE" height="47.9375" rx="12.5" ry="12.5" style="stroke:#666666;stroke-width:0.5;" width="175.7012" x="152.8071" y="1094.1807"/><text fill="#000000" font-family="'Segoe UI'" font-size="12" lengthAdjust="spacing" textLength="155.7012" x="162.8071" y="1115.3193">store_daemon_snapshot()</text><text fill="#000000" font-family="'Segoe UI'" font-size="12" lengthAdjust="spacing" textLength="152.2617" x="162.8071" y="1129.2881">to daemon-snapshot.json</text><rect fill="#FEFEFE" height="61.9063" rx="12.5" ry="12.5" style="stroke:#666666;stroke-width:0.5;" width="156.4238" x="162.4458" y="1162.1182"/><text fill="#000000" font-family="'Segoe UI'" font-size="12" lengthAdjust="spacing" textLength="67.3594" x="172.4458" y="1183.2568">sleep ~45s</text><text fill="#000000" font-family="'Segoe UI'" font-size="12" lengthAdjust="spacing" textLength="136.4238" x="172.4458" y="1197.2256">(check stop_requested</text><text fill="#000000" font-family="'Segoe UI'" font-size="12" lengthAdjust="spacing" textLength="56.2852" x="172.4458" y="1211.1943">every 1s)</text><polygon fill="#FEFEFE" points="240.6577,434.5273,252.6577,446.5273,240.6577,458.5273,228.6577,446.5273,240.6577,434.5273" style="stroke:#666666;stroke-width:0.5;"/><polygon fill="#FEFEFE" points="195.2075,1244.0244,286.1079,1244.0244,298.1079,1256.0244,286.1079,1268.0244,195.2075,1268.0244,183.2075,1256.0244,195.2075,1244.0244" style="stroke:#666666;stroke-width:0.5;"/><text fill="#000000" font-family="'Segoe UI'" font-size="11" lengthAdjust="spacing" textLength="90.9004" x="195.2075" y="1259.8325">stop_requested?</text><text fill="#000000" font-family="'Segoe UI'" font-size="11" lengthAdjust="spacing" textLength="13.7017" x="298.1079" y="1253.4302">no</text><rect fill="#FEFEFE" height="33.9688" rx="12.5" ry="12.5" style="stroke:#666666;stroke-width:0.5;" width="187.3438" x="146.9858" y="1309.4233"/><text fill="#000000" font-family="'Segoe UI'" font-size="12" lengthAdjust="spacing" textLength="167.3438" x="156.9858" y="1330.562">SetServiceStatus(STOPPED)</text><ellipse cx="240.6577" cy="1374.3921" fill="none" rx="11" ry="11" style="stroke:#222222;stroke-width:1;"/><ellipse cx="240.6577" cy="1374.3921" fill="#222222" rx="6" ry="6" style="stroke:#222222;stroke-width:1;"/><line style="stroke:#181818;stroke-width:1;" x1="240.6577" x2="240.6577" y1="72.2969" y2="92.2969"/><polygon fill="#181818" points="236.6577,82.2969,240.6577,92.2969,244.6577,82.2969,240.6577,86.2969" style="stroke:#181818;stroke-width:1;"/><line style="stroke:#181818;stroke-width:1;" x1="131.9287" x2="131.9287" y1="344.543" y2="370.5273"/><polygon fill="#181818" points="127.9287,360.5273,131.9287,370.5273,135.9287,360.5273,131.9287,364.5273" style="stroke:#181818;stroke-width:1;"/><line style="stroke:#181818;stroke-width:1;" x1="131.9287" x2="131.9287" y1="286.1719" y2="310.5742"/><polygon fill="#181818" points="127.9287,300.5742,131.9287,310.5742,135.9287,300.5742,131.9287,304.5742" style="stroke:#181818;stroke-width:1;"/><line style="stroke:#181818;stroke-width:1;" x1="190.2705" x2="240.6577" y1="274.1719" y2="274.1719"/><polygon fill="#181818" points="236.6577,354.543,240.6577,364.543,244.6577,354.543,240.6577,358.543" style="stroke:#181818;stroke-width:1;"/><line style="stroke:#181818;stroke-width:1;" x1="240.6577" x2="240.6577" y1="274.1719" y2="434.5273"/><polygon fill="#181818" points="236.6577,424.5273,240.6577,434.5273,244.6577,424.5273,240.6577,428.5273" style="stroke:#181818;stroke-width:1;"/><line style="stroke:#181818;stroke-width:1;" x1="131.9287" x2="131.9287" y1="228.2031" y2="262.1719"/><polygon fill="#181818" points="127.9287,252.1719,131.9287,262.1719,135.9287,252.1719,131.9287,256.1719" style="stroke:#181818;stroke-width:1;"/><line style="stroke:#181818;stroke-width:1;" x1="349.3867" x2="349.3867" y1="214.2344" y2="248.2031"/><polygon fill="#181818" points="345.3867,238.2031,349.3867,248.2031,353.3867,238.2031,349.3867,242.2031" style="stroke:#181818;stroke-width:1;"/><line style="stroke:#181818;stroke-width:1;" x1="181.2605" x2="131.9287" y1="158.2656" y2="158.2656"/><line style="stroke:#181818;stroke-width:1;" x1="131.9287" x2="131.9287" y1="158.2656" y2="180.2656"/><polygon fill="#181818" points="127.9287,170.2656,131.9287,180.2656,135.9287,170.2656,131.9287,174.2656" style="stroke:#181818;stroke-width:1;"/><line style="stroke:#181818;stroke-width:1;" x1="300.0549" x2="349.3867" y1="158.2656" y2="158.2656"/><line style="stroke:#181818;stroke-width:1;" x1="349.3867" x2="349.3867" y1="158.2656" y2="180.2656"/><polygon fill="#181818" points="345.3867,170.2656,349.3867,180.2656,353.3867,170.2656,349.3867,174.2656" style="stroke:#181818;stroke-width:1;"/><line style="stroke:#181818;stroke-width:1;" x1="240.6577" x2="240.6577" y1="126.2656" y2="146.2656"/><polygon fill="#181818" points="236.6577,136.2656,240.6577,146.2656,244.6577,136.2656,240.6577,140.2656" style="stroke:#181818;stroke-width:1;"/><line style="stroke:#181818;stroke-width:1;" x1="240.6577" x2="240.6577" y1="512.4961" y2="532.4961"/><polygon fill="#181818" points="236.6577,522.4961,240.6577,532.4961,244.6577,522.4961,240.6577,526.4961" style="stroke:#181818;stroke-width:1;"/><line style="stroke:#181818;stroke-width:1;" x1="240.6577" x2="240.6577" y1="661.501" y2="681.501"/><polygon fill="#181818" points="236.6577,671.501,240.6577,681.501,244.6577,671.501,240.6577,675.501" style="stroke:#181818;stroke-width:1;"/><line style="stroke:#181818;stroke-width:1;" x1="240.6577" x2="240.6577" y1="807.8721" y2="832.2744"/><polygon fill="#181818" points="236.6577,822.2744,240.6577,832.2744,244.6577,822.2744,240.6577,826.2744" style="stroke:#181818;stroke-width:1;"/><line style="stroke:#181818;stroke-width:1;" x1="327.187" x2="346.0728" y1="795.8721" y2="795.8721"/><polygon fill="#181818" points="342.0728,839.2588,346.0728,849.2588,350.0728,839.2588,346.0728,843.2588" style="stroke:#181818;stroke-width:1;"/><line style="stroke:#181818;stroke-width:1;" x1="346.0728" x2="346.0728" y1="795.8721" y2="898.2432"/><line style="stroke:#181818;stroke-width:1;" x1="346.0728" x2="252.6577" y1="898.2432" y2="898.2432"/><polygon fill="#181818" points="262.6577,894.2432,252.6577,898.2432,262.6577,902.2432,258.6577,898.2432" style="stroke:#181818;stroke-width:1;"/><line style="stroke:#181818;stroke-width:1;" x1="240.6577" x2="240.6577" y1="866.2432" y2="886.2432"/><polygon fill="#181818" points="236.6577,876.2432,240.6577,886.2432,244.6577,876.2432,240.6577,880.2432" style="stroke:#181818;stroke-width:1;"/><line style="stroke:#181818;stroke-width:1;" x1="240.6577" x2="240.6577" y1="759.4697" y2="783.8721"/><polygon fill="#181818" points="236.6577,773.8721,240.6577,783.8721,244.6577,773.8721,240.6577,777.8721" style="stroke:#181818;stroke-width:1;"/><line style="stroke:#181818;stroke-width:1;" x1="312.8086" x2="368.0728" y1="747.4697" y2="747.4697"/><polygon fill="#181818" points="364.0728,839.2588,368.0728,849.2588,372.0728,839.2588,368.0728,843.2588" style="stroke:#181818;stroke-width:1;"/><line style="stroke:#181818;stroke-width:1;" x1="368.0728" x2="368.0728" y1="747.4697" y2="942.2432"/><line style="stroke:#181818;stroke-width:1;" x1="368.0728" x2="252.6577" y1="942.2432" y2="942.2432"/><polygon fill="#181818" points="262.6577,938.2432,252.6577,942.2432,262.6577,946.2432,258.6577,942.2432" style="stroke:#181818;stroke-width:1;"/><line style="stroke:#181818;stroke-width:1;" x1="240.6577" x2="240.6577" y1="910.2432" y2="930.2432"/><polygon fill="#181818" points="236.6577,920.2432,240.6577,930.2432,244.6577,920.2432,240.6577,924.2432" style="stroke:#181818;stroke-width:1;"/><line style="stroke:#181818;stroke-width:1;" x1="240.6577" x2="240.6577" y1="715.4697" y2="735.4697"/><polygon fill="#181818" points="236.6577,725.4697,240.6577,735.4697,244.6577,725.4697,240.6577,729.4697" style="stroke:#181818;stroke-width:1;"/><line style="stroke:#181818;stroke-width:1;" x1="240.6577" x2="240.6577" y1="954.2432" y2="974.2432"/><polygon fill="#181818" points="236.6577,964.2432,240.6577,974.2432,244.6577,964.2432,240.6577,968.2432" style="stroke:#181818;stroke-width:1;"/><line style="stroke:#181818;stroke-width:1;" x1="240.6577" x2="240.6577" y1="580.4336" y2="627.5322"/><polygon fill="#181818" points="236.6577,617.5322,240.6577,627.5322,244.6577,617.5322,240.6577,621.5322" style="stroke:#181818;stroke-width:1;"/><line style="stroke:#181818;stroke-width:1;" x1="240.6577" x2="240.6577" y1="1008.2119" y2="1040.2119"/><polygon fill="#181818" points="236.6577,1030.2119,240.6577,1040.2119,244.6577,1030.2119,240.6577,1034.2119" style="stroke:#181818;stroke-width:1;"/><line style="stroke:#181818;stroke-width:1;" x1="240.6577" x2="240.6577" y1="1074.1807" y2="1094.1807"/><polygon fill="#181818" points="236.6577,1084.1807,240.6577,1094.1807,244.6577,1084.1807,240.6577,1088.1807" style="stroke:#181818;stroke-width:1;"/><line style="stroke:#181818;stroke-width:1;" x1="240.6577" x2="240.6577" y1="1142.1182" y2="1162.1182"/><polygon fill="#181818" points="236.6577,1152.1182,240.6577,1162.1182,244.6577,1152.1182,240.6577,1156.1182" style="stroke:#181818;stroke-width:1;"/><line style="stroke:#181818;stroke-width:1;" x1="240.6577" x2="240.6577" y1="458.5273" y2="478.5273"/><polygon fill="#181818" points="236.6577,468.5273,240.6577,478.5273,244.6577,468.5273,240.6577,472.5273" style="stroke:#181818;stroke-width:1;"/><line style="stroke:#181818;stroke-width:1;" x1="298.1079" x2="515.248" y1="1256.0244" y2="1256.0244"/><polygon fill="#181818" points="511.248,865.0791,515.248,855.0791,519.248,865.0791,515.248,861.0791" style="stroke:#181818;stroke-width:1;"/><line style="stroke:#181818;stroke-width:1;" x1="515.248" x2="515.248" y1="446.5273" y2="1256.0244"/><line style="stroke:#181818;stroke-width:1;" x1="515.248" x2="252.6577" y1="446.5273" y2="446.5273"/><polygon fill="#181818" points="262.6577,442.5273,252.6577,446.5273,262.6577,450.5273,258.6577,446.5273" style="stroke:#181818;stroke-width:1;"/><line style="stroke:#181818;stroke-width:1;" x1="240.6577" x2="240.6577" y1="1224.0244" y2="1244.0244"/><polygon fill="#181818" points="236.6577,1234.0244,240.6577,1244.0244,244.6577,1234.0244,240.6577,1238.0244" style="stroke:#181818;stroke-width:1;"/><line style="stroke:#181818;stroke-width:1;" x1="240.6577" x2="240.6577" y1="1268.0244" y2="1309.4233"/><polygon fill="#181818" points="236.6577,1299.4233,240.6577,1309.4233,244.6577,1299.4233,240.6577,1303.4233" style="stroke:#181818;stroke-width:1;"/><text fill="#000000" font-family="'Segoe UI'" font-size="11" lengthAdjust="spacing" textLength="19.0083" x="244.6577" y="1289.3291">yes</text><line style="stroke:#181818;stroke-width:1;" x1="240.6577" x2="240.6577" y1="1343.3921" y2="1363.3921"/><polygon fill="#181818" points="236.6577,1353.3921,240.6577,1363.3921,244.6577,1353.3921,240.6577,1357.3921" style="stroke:#181818;stroke-width:1;"/><?plantuml-src RLF1Rjim3BtxAxZqeXmoOC2MGm9qsDgqwA5T0AU70G44ng9ZBOxaIdBIODY-lPHYTqbN-2BJx_5Hxz5-eqs33hUmmcApThOrwihMra5mQ3n_8XCo_ufIL69RXnjhmWDk2GOvhIt1uztW1EGhL7QlpHfAh3sTVC4Yw9qEX-_MAN97eOlnUFmUvCqy5pUp-6HPqA4ck4RQMWFtg4qWWwOWk3eKDMMP3-X2barSQsJZgAprkWgogAZOU36SPhe4yLg71hqdzNK8eI83ua1-c05Ci7XgjIEvhkqAQwaDTsKDCLoQmMsgBPSFj2Fts2WCT9mc3ZEOCZrARDj0pz3r-K-0s1SGniOpoz6p3Y3GM0OvwDM0hs3Onk4qeNomJQGQfSlij457_tUf4dLDAj4IwKZ973M48H8MEYUtqmLD-fkAXEO1M3NscC0tjTK6HfUG_ymNi_juMjn5ScrHIPumC0bAPxTBazu-_lBMJ3E6S9ASakPy1YL7HrXKSDkYKtFBSO5OOIWgIJoiNjKq7C3lemqf9BcEI6uz6W5V2MBlrazxewXWOsNS4cj4QjhP4qtVeuSFYKyALiJYzDRv7benDEwEAwY9lUIAAjnfwzuZn8re6hPHdb7utt07qUdtoPoVUbwbEGbtEANyYLPDFEweTtEQ2emZgT96IM-myPKDSV62XMDrr5SxnoEf9chWx-SlVcb4iZ4bBnqzjUG3gQM9stg0JvvLkas0VSLx0k8SoVVN_hXQeqlsWE6Jd4AtC7bAG-IB7_Fvx9fxHV8B?></g></svg>