<svg xmlns="http://www.w3.org/2000/svg" xmlns:xlink="http://www.w3.org/1999/xlink" contentStyleType="text/css" data-diagram-type="SEQUENCE" height="1109px" preserveAspectRatio="none" style="width:1065px;height:1109px;" version="1.1" viewBox="0 0 1065 1109" width="1065px" zoomAndPan="magnify"><?plantuml 1.2026.3beta6?><defs/><rect width="100%" height="100%" fill="white"/><g><g class="title" data-source-line="6"><text fill="#000000" font-family="'Segoe UI'" font-size="14" font-weight="700" lengthAdjust="spacing" textLength="178.0967" x="440.1531" y="27.9951">Daemon SCM Lifecycle</text></g><g class="participant-lifeline" data-entity-uid="part1" data-qualified-name="caller" data-source-line="8" id="part1-lifeline"><g><title>GUI . CLI</title><rect fill="#000000" fill-opacity="0.00000" height="966.1172" width="8" x="38.2729" y="89.8906"/><line style="stroke:#181818;stroke-width:0.5;stroke-dasharray:5,5;" x1="42" x2="42" y1="89.8906" y2="1056.0078"/></g></g><g class="participant-lifeline" data-entity-uid="part2" data-qualified-name="scm" data-source-line="9" id="part2-lifeline"><g><title>SCM</title><rect fill="#000000" fill-opacity="0.00000" height="966.1172" width="8" x="328.4873" y="89.8906"/><line style="stroke:#181818;stroke-width:0.5;stroke-dasharray:5,5;" x1="331.7646" x2="331.7646" y1="89.8906" y2="1056.0078"/></g></g><g class="participant-lifeline" data-entity-uid="part3" data-qualified-name="daemon" data-source-line="10" id="part3-lifeline"><g><title>neverupdate-daemon.exe</title><rect fill="#000000" fill-opacity="0.00000" height="966.1172" width="8" x="494.0288" y="89.8906"/><line style="stroke:#181818;stroke-width:0.5;stroke-dasharray:5,5;" x1="497.21" x2="497.21" y1="89.8906" y2="1056.0078"/></g></g><g class="participant-lifeline" data-entity-uid="part4" data-qualified-name="host" data-source-line="11" id="part4-lifeline"><g><title>service_host.rs</title><rect fill="#000000" fill-opacity="0.00000" height="966.1172" width="8" x="661.2827" y="89.8906"/><line style="stroke:#181818;stroke-width:0.5;stroke-dasharray:5,5;" x1="664.8477" x2="664.8477" y1="89.8906" y2="1056.0078"/></g></g><g class="participant-lifeline" data-entity-uid="part5" data-qualified-name="main" data-source-line="12" id="part5-lifeline"><g><title>main.rs</title><rect fill="#000000" fill-opacity="0.00000" height="966.1172" width="8" x="869.7939" y="89.8906"/><line style="stroke:#181818;stroke-width:0.5;stroke-dasharray:5,5;" x1="873.5542" x2="873.5542" y1="89.8906" y2="1056.0078"/></g></g><g class="participant participant-head" data-entity-uid="part1" data-qualified-name="caller" data-source-line="8" id="part1-head"><rect fill="#E2E2F0" height="30.2969" rx="2.5" ry="2.5" style="stroke:#181818;stroke-width:0.5;" width="74.5459" x="5" y="58.5938"/><text fill="#000000" font-family="'Segoe UI'" font-size="14" lengthAdjust="spacing" textLength="60.5459" x="12" y="78.5889">GUI / CLI</text></g><g class="participant participant-tail" data-entity-uid="part1" data-qualified-name="caller" data-source-line="8" id="part1-tail"><rect fill="#E2E2F0" height="30.2969" rx="2.5" ry="2.5" style="stroke:#181818;stroke-width:0.5;" width="74.5459" x="5" y="1055.0078"/><text fill="#000000" font-family="'Segoe UI'" font-size="14" lengthAdjust="spacing" textLength="60.5459" x="12" y="1075.0029">GUI / CLI</text></g><g class="participant participant-head" data-entity-uid="part2" data-qualified-name="scm" data-source-line="9" id="part2-head"><rect fill="#E2E2F0" height="46.5938" rx="2.5" ry="2.5" style="stroke:#181818;stroke-width:0.5;" width="115.4453" x="274.7646" y="42.2969"/><text fill="#000000" font-family="'Segoe UI'" font-size="14" lengthAdjust="spacing" textLength="30.7412" x="317.1167" y="62.292">SCM</text><text fill="#000000" font-family="'Segoe UI'" font-size="14" lengthAdjust="spacing" textLength="101.4453" x="281.7646" y="78.5889">(services.msc)</text></g><g class="participant participant-tail" data-entity-uid="part2" data-qualified-name="scm" data-source-line="9" id="part2-tail"><rect fill="#E2E2F0" height="46.5938" rx="2.5" ry="2.5" style="stroke:#181818;stroke-width:0.5;" width="115.4453" x="274.7646" y="1055.0078"/><text fill="#000000" font-family="'Segoe UI'" font-size="14" lengthAdjust="spacing" textLength="30.7412" x="317.1167" y="1075.0029">SCM</text><text fill="#000000" font-family="'Segoe UI'" font-size="14" lengthAdjust="spacing" textLength="101.4453" x="281.7646" y="1091.2998">(services.msc)</text></g><g class="participant participant-head" data-entity-uid="part3" data-qualified-name="daemon" data-source-line="10" id="part3-head"><rect fill="#E2E2F0" height="30.2969" rx="2.5" ry="2.5" style="stroke:#181818;stroke-width:0.5;" width="195.6377" x="400.21" y="58.5938"/><text fill="#000000" font-family="'Segoe UI'" font-size="14" lengthAdjust="spacing" textLength="181.6377" x="407.21" y="78.5889">neverupdate-daemon.exe</text></g><g class="participant participant-tail" data-entity-uid="part3" data-qualified-name="daemon" data-source-line="10" id="part3-tail"><rect fill="#E2E2F0" height="30.2969" rx="2.5" ry="2.5" style="stroke:#181818;stroke-width:0.5;" width="195.6377" x="400.21" y="1055.0078"/><text fill="#000000" font-family="'Segoe UI'" font-size="14" lengthAdjust="spacing" textLength="181.6377" x="407.21" y="1075.0029">neverupdate-daemon.exe</text></g><g class="participant participant-head" data-entity-uid="part4" data-qualified-name="host" data-source-line="11" id="part4-head"><rect fill="#E2E2F0" height="30.2969" rx="2.5" ry="2.5" style="stroke:#181818;stroke-width:0.5;" width="118.8701" x="605.8477" y="58.5938"/><text fill="#000000" font-family="'Segoe UI'" font-size="14" lengthAdjust="spacing" textLength="104.8701" x="612.8477" y="78.5889">service_host.rs</text></g><g class="participant participant-tail" data-entity-uid="part4" data-qualified-name="host" data-source-line="11" id="part4-tail"><rect fill="#E2E2F0" height="30.2969" rx="2.5" ry="2.5" style="stroke:#181818;stroke-width:0.5;" width="118.8701" x="605.8477" y="1055.0078"/><text fill="#000000" font-family="'Segoe UI'" font-size="14" lengthAdjust="spacing" textLength="104.8701" x="612.8477" y="1075.0029">service_host.rs</text></g><g class="participant participant-head" data-entity-uid="part5" data-qualified-name="main" data-source-line="12" id="part5-head"><rect fill="#E2E2F0" height="30.2969" rx="2.5" ry="2.5" style="stroke:#181818;stroke-width:0.5;" width="66.4795" x="840.5542" y="58.5938"/><text fill="#000000" font-family="'Segoe UI'" font-size="14" lengthAdjust="spacing" textLength="52.4795" x="847.5542" y="78.5889">main.rs</text></g><g class="participant participant-tail" data-entity-uid="part5" data-qualified-name="main" data-source-line="12" id="part5-tail"><rect fill="#E2E2F0" height="30.2969" rx="2.5" ry="2.5" style="stroke:#181818;stroke-width:0.5;" width="66.4795" x="840.5542" y="1055.0078"/><text fill="#000000" font-family="'Segoe UI'" font-size="14" lengthAdjust="spacing" textLength="52.4795" x="847.5542" y="1075.0029">main.rs</text></g><rect fill="#EEEEEE" height="3" style="stroke:#EEEEEE;stroke-width:1;" width="1059.4028" x="0" y="120.457"/><line style="stroke:#000000;stroke-width:1;" x1="0" x2="1059.4028" y1="120.457" y2="120.457"/><line style="stroke:#000000;stroke-width:1;" x1="0" x2="1059.4028" y1="123.457" y2="123.457"/><rect fill="#EEEEEE" height="23.1328" style="stroke:#000000;stroke-width:2;" width="167.6768" x="445.863" y="109.8906"/><text fill="#000000" font-family="'Segoe UI'" font-size="13" font-weight="700" lengthAdjust="spacing" textLength="149.1509" x="451.863" y="125.9575">Service Registration</text><g class="message" data-entity-1="part1" data-entity-2="part2" data-source-line="16" id="msg1"><polygon fill="#181818" points="320.4873,175.2891,330.4873,179.2891,320.4873,183.2891,324.4873,179.2891" style="stroke:#181818;stroke-width:1;"/><line style="stroke:#181818;stroke-width:1.5;" x1="42.2729" x2="326.4873" y1="179.2891" y2="179.2891"/><text fill="#000000" font-family="'Segoe UI'" font-size="13" lengthAdjust="spacing" textLength="266.2144" x="49.2729" y="159.0903">CreateServiceW("NeverUpdateDaemon",</text><text fill="#000000" font-family="'Segoe UI'" font-size="13" lengthAdjust="spacing" textLength="181.8667" x="49.2729" y="174.2231">"&lt;exe&gt; run", AUTO_START)</text></g><g class="message" data-entity-1="part2" data-entity-2="part1" data-source-line="17" id="msg2"><polygon fill="#181818" points="53.2729,204.4219,43.2729,208.4219,53.2729,212.4219,49.2729,208.4219" style="stroke:#181818;stroke-width:1;"/><line style="stroke:#181818;stroke-width:1.5;stroke-dasharray:2,2;" x1="47.2729" x2="331.4873" y1="208.4219" y2="208.4219"/><text fill="#000000" font-family="'Segoe UI'" font-size="13" lengthAdjust="spacing" textLength="18.7573" x="59.2729" y="203.356">OK</text></g><rect fill="#EEEEEE" height="3" style="stroke:#EEEEEE;stroke-width:1;" width="1059.4028" x="0" y="236.9883"/><line style="stroke:#000000;stroke-width:1;" x1="0" x2="1059.4028" y1="236.9883" y2="236.9883"/><line style="stroke:#000000;stroke-width:1;" x1="0" x2="1059.4028" y1="239.9883" y2="239.9883"/><rect fill="#EEEEEE" height="23.1328" style="stroke:#000000;stroke-width:2;" width="114.0708" x="472.666" y="226.4219"/><text fill="#000000" font-family="'Segoe UI'" font-size="13" font-weight="700" lengthAdjust="spacing" textLength="95.5449" x="478.666" y="242.4888">Service Start</text><g class="message" data-entity-1="part1" data-entity-2="part2" data-source-line="21" id="msg3"><polygon fill="#181818" points="320.4873,276.6875,330.4873,280.6875,320.4873,284.6875,324.4873,280.6875" style="stroke:#181818;stroke-width:1;"/><line style="stroke:#181818;stroke-width:1.5;" x1="42.2729" x2="326.4873" y1="280.6875" y2="280.6875"/><text fill="#000000" font-family="'Segoe UI'" font-size="13" lengthAdjust="spacing" textLength="102.8003" x="49.2729" y="275.6216">StartServiceW()</text></g><g class="message" data-entity-1="part2" data-entity-2="part3" data-source-line="22" id="msg4"><polygon fill="#181818" points="486.0288,305.8203,496.0288,309.8203,486.0288,313.8203,490.0288,309.8203" style="stroke:#181818;stroke-width:1;"/><line style="stroke:#181818;stroke-width:1.5;" x1="332.4873" x2="492.0288" y1="309.8203" y2="309.8203"/><text fill="#000000" font-family="'Segoe UI'" font-size="13" lengthAdjust="spacing" textLength="97.8174" x="339.4873" y="304.7544">launch process</text></g><g class="message" data-entity-1="part3" data-entity-2="part4" data-source-line="23" id="msg5"><polygon fill="#181818" points="653.2827,334.9531,663.2827,338.9531,653.2827,342.9531,657.2827,338.9531" style="stroke:#181818;stroke-width:1;"/><line style="stroke:#181818;stroke-width:1.5;" x1="498.0288" x2="659.2827" y1="338.9531" y2="338.9531"/><text fill="#000000" font-family="'Segoe UI'" font-size="13" lengthAdjust="spacing" textLength="120.0024" x="505.0288" y="333.8872">enter_dispatcher()</text></g><g class="message" data-entity-1="part4" data-entity-2="part2" data-source-line="24" id="msg6"><polygon fill="#181818" points="343.4873,367.0859,333.4873,371.0859,343.4873,375.0859,339.4873,371.0859" style="stroke:#181818;stroke-width:1;"/><line style="stroke:#181818;stroke-width:1.5;" x1="337.4873" x2="664.2827" y1="371.0859" y2="371.0859"/><text fill="#000000" font-family="'Segoe UI'" font-size="13" lengthAdjust="spacing" textLength="196.3711" x="349.4873" y="366.02">StartServiceCtrlDispatcherW()</text></g><path d="M670,351.9531 L670,376.9531 L855,376.9531 L855,361.9531 L845,351.9531 L670,351.9531" fill="#FEFFDD" style="stroke:#181818;stroke-width:0.5;"/><path d="M845,351.9531 L845,361.9531 L855,361.9531 L845,351.9531" fill="#FEFFDD" style="stroke:#181818;stroke-width:0.5;"/><text fill="#000000" font-family="'Segoe UI'" font-size="13" lengthAdjust="spacing" textLength="164.5439" x="676" y="369.02">Blocks until service stops</text><g class="message" data-entity-1="part2" data-entity-2="part4" data-source-line="26" id="msg8"><polygon fill="#181818" points="653.2827,399.2188,663.2827,403.2188,653.2827,407.2188,657.2827,403.2188" style="stroke:#181818;stroke-width:1;"/><line style="stroke:#181818;stroke-width:1.5;" x1="332.4873" x2="659.2827" y1="403.2188" y2="403.2188"/><text fill="#000000" font-family="'Segoe UI'" font-size="13" lengthAdjust="spacing" textLength="153.0547" x="339.4873" y="398.1528">service_main() callback</text></g><g class="message" data-entity-1="part4" data-entity-2="part2" data-source-line="27" id="msg9"><polygon fill="#181818" points="343.4873,428.3516,333.4873,432.3516,343.4873,436.3516,339.4873,432.3516" style="stroke:#181818;stroke-width:1;"/><line style="stroke:#181818;stroke-width:1.5;" x1="337.4873" x2="664.2827" y1="432.3516" y2="432.3516"/><text fill="#000000" font-family="'Segoe UI'" font-size="13" lengthAdjust="spacing" textLength="199.4688" x="349.4873" y="427.2856">RegisterServiceCtrlHandlerW()</text></g><g class="message" data-entity-1="part4" data-entity-2="part2" data-source-line="28" id="msg10"><polygon fill="#181818" points="343.4873,457.4844,333.4873,461.4844,343.4873,465.4844,339.4873,461.4844" style="stroke:#181818;stroke-width:1;"/><line style="stroke:#181818;stroke-width:1.5;" x1="337.4873" x2="664.2827" y1="461.4844" y2="461.4844"/><text fill="#000000" font-family="'Segoe UI'" font-size="13" lengthAdjust="spacing" textLength="228.9409" x="349.4873" y="456.4185">SetServiceStatus(START_PENDING)</text></g><g class="message" data-entity-1="part4" data-entity-2="part5" data-source-line="29" id="msg11"><polygon fill="#181818" points="861.7939,486.6172,871.7939,490.6172,861.7939,494.6172,865.7939,490.6172" style="stroke:#181818;stroke-width:1;"/><line style="stroke:#181818;stroke-width:1.5;" x1="665.2827" x2="867.7939" y1="490.6172" y2="490.6172"/><text fill="#000000" font-family="'Segoe UI'" font-size="13" lengthAdjust="spacing" textLength="181.5049" x="672.2827" y="485.5513">spawn(run_daemon_work())</text></g><g class="message" data-entity-1="part4" data-entity-2="part2" data-source-line="30" id="msg12"><polygon fill="#181818" points="343.4873,515.75,333.4873,519.75,343.4873,523.75,339.4873,519.75" style="stroke:#181818;stroke-width:1;"/><line style="stroke:#181818;stroke-width:1.5;" x1="337.4873" x2="664.2827" y1="519.75" y2="519.75"/><text fill="#000000" font-family="'Segoe UI'" font-size="13" lengthAdjust="spacing" textLength="182.5903" x="349.4873" y="514.6841">SetServiceStatus(RUNNING)</text></g><path d="M805,532.75 L805,572.75 L941,572.75 L941,542.75 L931,532.75 L805,532.75" fill="#FEFFDD" style="stroke:#181818;stroke-width:0.5;"/><path d="M931,532.75 L931,542.75 L941,542.75 L931,532.75" fill="#FEFFDD" style="stroke:#181818;stroke-width:0.5;"/><text fill="#000000" font-family="'Segoe UI'" font-size="13" lengthAdjust="spacing" textLength="115.6226" x="811" y="549.8169">Maintenance loop</text><text fill="#000000" font-family="'Segoe UI'" font-size="13" lengthAdjust="spacing" textLength="107.7959" x="811" y="564.9497">runs every ~45s</text><rect fill="#EEEEEE" height="3" style="stroke:#EEEEEE;stroke-width:1;" width="1059.4028" x="0" y="598.582"/><line style="stroke:#000000;stroke-width:1;" x1="0" x2="1059.4028" y1="598.582" y2="598.582"/><line style="stroke:#000000;stroke-width:1;" x1="0" x2="1059.4028" y1="601.582" y2="601.582"/><rect fill="#EEEEEE" height="23.1328" style="stroke:#000000;stroke-width:2;" width="110.9097" x="474.2466" y="588.0156"/><text fill="#000000" font-family="'Segoe UI'" font-size="13" font-weight="700" lengthAdjust="spacing" textLength="92.3838" x="480.2466" y="604.0825">Service Stop</text><g class="message" data-entity-1="part1" data-entity-2="part2" data-source-line="36" id="msg13"><polygon fill="#181818" points="320.4873,638.2813,330.4873,642.2813,320.4873,646.2813,324.4873,642.2813" style="stroke:#181818;stroke-width:1;"/><line style="stroke:#181818;stroke-width:1.5;" x1="42.2729" x2="326.4873" y1="642.2813" y2="642.2813"/><text fill="#000000" font-family="'Segoe UI'" font-size="13" lengthAdjust="spacing" textLength="139.731" x="49.2729" y="637.2153">ControlService(STOP)</text></g><g class="message" data-entity-1="part2" data-entity-2="part4" data-source-line="37" id="msg14"><polygon fill="#181818" points="653.2827,667.4141,663.2827,671.4141,653.2827,675.4141,657.2827,671.4141" style="stroke:#181818;stroke-width:1;"/><line style="stroke:#181818;stroke-width:1.5;" x1="332.4873" x2="659.2827" y1="671.4141" y2="671.4141"/><text fill="#000000" font-family="'Segoe UI'" font-size="13" lengthAdjust="spacing" textLength="277.9067" x="339.4873" y="666.3481">control_handler(SERVICE_CONTROL_STOP)</text></g><g class="message" data-entity-1="part4" data-entity-2="part4" data-source-line="38" id="msg15"><line style="stroke:#181818;stroke-width:1.5;" x1="665.2827" x2="707.2827" y1="700.5469" y2="700.5469"/><line style="stroke:#181818;stroke-width:1.5;" x1="707.2827" x2="707.2827" y1="700.5469" y2="713.5469"/><line style="stroke:#181818;stroke-width:1.5;" x1="666.2827" x2="707.2827" y1="713.5469" y2="713.5469"/><polygon fill="#181818" points="676.2827,709.5469,666.2827,713.5469,676.2827,717.5469,672.2827,713.5469" style="stroke:#181818;stroke-width:1;"/><text fill="#000000" font-family="'Segoe UI'" font-size="13" lengthAdjust="spacing" textLength="194.5112" x="672.2827" y="695.481">STOP_REQUESTED.store(true)</text></g><g class="message" data-entity-1="part4" data-entity-2="part2" data-source-line="39" id="msg16"><polygon fill="#181818" points="343.4873,738.6797,333.4873,742.6797,343.4873,746.6797,339.4873,742.6797" style="stroke:#181818;stroke-width:1;"/><line style="stroke:#181818;stroke-width:1.5;" x1="337.4873" x2="664.2827" y1="742.6797" y2="742.6797"/><text fill="#000000" font-family="'Segoe UI'" font-size="13" lengthAdjust="spacing" textLength="221.146" x="349.4873" y="737.6138">SetServiceStatus(STOP_PENDING)</text></g><g class="message" data-entity-1="part5" data-entity-2="part5" data-source-line="40" id="msg17"><line style="stroke:#181818;stroke-width:1.5;" x1="873.7939" x2="915.7939" y1="771.8125" y2="771.8125"/><line style="stroke:#181818;stroke-width:1.5;" x1="915.7939" x2="915.7939" y1="771.8125" y2="784.8125"/><line style="stroke:#181818;stroke-width:1.5;" x1="874.7939" x2="915.7939" y1="784.8125" y2="784.8125"/><polygon fill="#181818" points="884.7939,780.8125,874.7939,784.8125,884.7939,788.8125,880.7939,784.8125" style="stroke:#181818;stroke-width:1;"/><text fill="#000000" font-family="'Segoe UI'" font-size="13" lengthAdjust="spacing" textLength="171.6089" x="880.7939" y="766.7466">stop_requested() -&gt; break</text></g><g class="message" data-entity-1="part5" data-entity-2="part4" data-source-line="41" id="msg18"><polygon fill="#181818" points="676.2827,809.9453,666.2827,813.9453,676.2827,817.9453,672.2827,813.9453" style="stroke:#181818;stroke-width:1;"/><line style="stroke:#181818;stroke-width:1.5;stroke-dasharray:2,2;" x1="670.2827" x2="872.7939" y1="813.9453" y2="813.9453"/><text fill="#000000" font-family="'Segoe UI'" font-size="13" lengthAdjust="spacing" textLength="82.4941" x="682.2827" y="808.8794">worker.join()</text></g><g class="message" data-entity-1="part4" data-entity-2="part2" data-source-line="42" id="msg19"><polygon fill="#181818" points="343.4873,839.0781,333.4873,843.0781,343.4873,847.0781,339.4873,843.0781" style="stroke:#181818;stroke-width:1;"/><line style="stroke:#181818;stroke-width:1.5;" x1="337.4873" x2="664.2827" y1="843.0781" y2="843.0781"/><text fill="#000000" font-family="'Segoe UI'" font-size="13" lengthAdjust="spacing" textLength="181.2891" x="349.4873" y="838.0122">SetServiceStatus(STOPPED)</text></g><rect fill="#EEEEEE" height="3" style="stroke:#EEEEEE;stroke-width:1;" width="1059.4028" x="0" y="871.6445"/><line style="stroke:#000000;stroke-width:1;" x1="0" x2="1059.4028" y1="871.6445" y2="871.6445"/><line style="stroke:#000000;stroke-width:1;" x1="0" x2="1059.4028" y1="874.6445" y2="874.6445"/><rect fill="#EEEEEE" height="23.1328" style="stroke:#000000;stroke-width:2;" width="141.7148" x="458.844" y="861.0781"/><text fill="#000000" font-family="'Segoe UI'" font-size="13" font-weight="700" lengthAdjust="spacing" textLength="123.189" x="464.844" y="877.145">Console Fallback</text><path d="M299,899.2109 L299,954.2109 L695,954.2109 L695,909.2109 L685,899.2109 L299,899.2109" fill="#FEFFDD" style="stroke:#181818;stroke-width:0.5;"/><path d="M685,899.2109 L685,909.2109 L695,909.2109 L685,899.2109" fill="#FEFFDD" style="stroke:#181818;stroke-width:0.5;"/><text fill="#000000" font-family="'Segoe UI'" font-size="13" lengthAdjust="spacing" textLength="154.7939" x="305" y="916.2778">If not launched by SCM:</text><text fill="#000000" font-family="'Segoe UI'" font-size="13" lengthAdjust="spacing" textLength="186.2275" x="305" y="931.4106">StartServiceCtrlDispatcherW</text><text fill="#000000" font-family="'Segoe UI'" font-size="13" lengthAdjust="spacing" textLength="375.8638" x="305" y="946.5435">returns ERROR_FAILED_SERVICE_CONTROLLER_CONNECT</text><g class="message" data-entity-1="part3" data-entity-2="part5" data-source-line="47" id="msg20"><polygon fill="#181818" points="861.7939,976.7422,871.7939,980.7422,861.7939,984.7422,865.7939,980.7422" style="stroke:#181818;stroke-width:1;"/><line style="stroke:#181818;stroke-width:1.5;" x1="498.0288" x2="867.7939" y1="980.7422" y2="980.7422"/><text fill="#000000" font-family="'Segoe UI'" font-size="13" lengthAdjust="spacing" textLength="190.1377" x="505.0288" y="975.6763">DispatcherOutcome::Console</text></g><g class="message" data-entity-1="part5" data-entity-2="part5" data-source-line="48" id="msg21"><line style="stroke:#181818;stroke-width:1.5;" x1="873.7939" x2="915.7939" y1="1025.0078" y2="1025.0078"/><line style="stroke:#181818;stroke-width:1.5;" x1="915.7939" x2="915.7939" y1="1025.0078" y2="1038.0078"/><line style="stroke:#181818;stroke-width:1.5;" x1="874.7939" x2="915.7939" y1="1038.0078" y2="1038.0078"/><polygon fill="#181818" points="884.7939,1034.0078,874.7939,1038.0078,884.7939,1042.0078,880.7939,1038.0078" style="stroke:#181818;stroke-width:1;"/><text fill="#000000" font-family="'Segoe UI'" font-size="13" lengthAdjust="spacing" textLength="129.4985" x="880.7939" y="1004.8091">run_daemon_work()</text><text fill="#000000" font-family="'Segoe UI'" font-size="13" lengthAdjust="spacing" textLength="114.2007" x="880.7939" y="1019.9419">(foreground loop)</text></g><?plantuml-src ZLHDRzim3BtxLn0vES2QOS1w2PO2cUDsnbAdivFj4i1GPIRsuaYU93VjPRzzbAryhjXwiYm-yJq-KjARKjHCiIqyChvPAzc8F92LL60K4vf2A8od3wWSLwofpAqK9cPRX5wAQucmY7ed85smNEvAiOOLgpIUHl1NWuBZM2cvcnSbtmZK6ZuChZtFbAP2c33SIW5fS0_JSeNyXLVeUNJQbBoicJ3Gkrj4y1w2QTG3fe6pga9rZg3JI-5hL4ybHptOQjvliPflpu42dr0rTSuCNkKjym2ViSLsl-Tmbp4hf3O3fLkSNP-ZjgmK-wXTUzve16bt519SbvgyDILLEHfvNgSVhcwiEXX2e93KEFWFlnTRYOjMOkTDxzrIz3wHp1jG3Vt1U36VPUbydCpxdirnHRbSrY7ClfxHfuQKlihRHWwqBjEDiu7Y5Mi4Bw1MaYpLdjidX3M0uZGdgBAyf9anl415ATh8gmI1KTNa0BLqGXe4LQuBCuJFbUGR3OqmPGNESz16rdglod7k-s5TzljjqNQCBuWxor6TS7zX8gywuWkHk9T8SasZ_TRNx26C9r5yTqHRHYkWPZlXKnkopezi9zN6x_ytQxA8upPVLxUa5kzJtjF7e61qIw2IibuAIg_1Ji4B_FvuhI_wAUlNnuXkg9ALmr4PiuV-XNkyWsH5PuQVXidtA0YpO1RFazaqwyxiAt67x6QMXDyMOJeF9mFgYaBVg0RVu2ITF1ZPLdjY9DMHAViwKATowYM57kacR1pmAC0wZ6hmKzgMluNp8PpqMy_84YtfYRbrOzBwTlJ_CEdH2cZN3JpcyFXYdwFXKlnZWgbBQ1f5ZGgJP9Paj-De6awo2qkdOMANSHZCJowGi-2ORTOOBhSu73h5bsRzDM_qsAse3ztptKvD_my0?></g></svg>