<svg xmlns="http://www.w3.org/2000/svg" xmlns:xlink="http://www.w3.org/1999/xlink" contentStyleType="text/css" data-diagram-type="CLASS" height="435px" preserveAspectRatio="none" style="width:1699px;height:435px;" version="1.1" viewBox="0 0 1699 435" width="1699px" zoomAndPan="magnify"><?plantuml 1.2026.3beta6?><defs/><rect width="100%" height="100%" fill="white"/><g><g class="title" data-source-line="8"><text fill="#000000" font-family="'Segoe UI'" font-size="14" font-weight="700" lengthAdjust="spacing" textLength="331.7822" x="680.4069" y="22.9951">Guard System: Trait and Implementations</text></g><!--class GuardPoint--><g class="entity" data-qualified-name="GuardPoint" data-source-line="10" id="ent0002"><rect fill="#FEFEFE" height="202.9375" rx="2.5" ry="2.5" style="stroke:#666666;stroke-width:0.5;" width="345.8057" x="623.38" y="44.2969"/><ellipse cx="752.9313" cy="64.4297" fill="#B4A7E5" rx="11" ry="11" style="stroke:#181818;stroke-width:1;"/><path d="M748.8531,60.1953 L748.8531,58.0391 L756.2438,58.0391 L756.2438,60.1953 L753.775,60.1953 L753.775,68.2734 L756.2438,68.2734 L756.2438,70.4297 L748.8531,70.4297 L748.8531,68.2734 L751.3219,68.2734 L751.3219,60.1953 L748.8531,60.1953 Z " fill="#000000"/><text fill="#000000" font-family="Segoe UI" font-size="12" font-style="italic" lengthAdjust="spacing" textLength="39.7148" x="792.6754" y="60.4355">&#171;trait&#187;</text><text fill="#000000" font-family="'Segoe UI'" font-size="14" font-style="italic" lengthAdjust="spacing" textLength="78.2031" x="773.4313" y="76.2607">GuardPoint</text><line style="stroke:#666666;stroke-width:0.5;" x1="624.38" x2="968.1857" y1="84.5625" y2="84.5625"/><line style="stroke:#666666;stroke-width:0.5;" x1="624.38" x2="968.1857" y1="92.5625" y2="92.5625"/><g data-visibility-modifier="PUBLIC_METHOD"><ellipse cx="634.38" cy="106.2109" fill="#84BE84" rx="3" ry="3" style="stroke:#038048;stroke-width:1;"/></g><text fill="#000000" font-family="'Segoe UI'" font-size="14" lengthAdjust="spacing" textLength="66.7734" x="643.38" y="109.5576">id() : &amp;str</text><g data-visibility-modifier="PUBLIC_METHOD"><ellipse cx="634.38" cy="122.5078" fill="#84BE84" rx="3" ry="3" style="stroke:#038048;stroke-width:1;"/></g><text fill="#000000" font-family="'Segoe UI'" font-size="14" lengthAdjust="spacing" textLength="81.3682" x="643.38" y="125.8545">title() : &amp;str</text><g data-visibility-modifier="PUBLIC_METHOD"><ellipse cx="634.38" cy="138.8047" fill="#84BE84" rx="3" ry="3" style="stroke:#038048;stroke-width:1;"/></g><text fill="#000000" font-family="'Segoe UI'" font-size="14" lengthAdjust="spacing" textLength="131.8379" x="643.38" y="142.1514">description() : &amp;str</text><g data-visibility-modifier="PUBLIC_METHOD"><ellipse cx="634.38" cy="155.1016" fill="#84BE84" rx="3" ry="3" style="stroke:#038048;stroke-width:1;"/></g><text fill="#000000" font-family="'Segoe UI'" font-size="14" lengthAdjust="spacing" textLength="291.1563" x="643.38" y="158.4482">check(state) : Result&lt;GuardPointStatus&gt;</text><g data-visibility-modifier="PUBLIC_METHOD"><ellipse cx="634.38" cy="171.3984" fill="#84BE84" rx="3" ry="3" style="stroke:#038048;stroke-width:1;"/></g><text fill="#000000" font-family="'Segoe UI'" font-size="14" lengthAdjust="spacing" textLength="309.4287" x="643.38" y="174.7451">guard(state, ti) : Result&lt;GuardPointStatus&gt;</text><g data-visibility-modifier="PUBLIC_METHOD"><ellipse cx="634.38" cy="187.6953" fill="#84BE84" rx="3" ry="3" style="stroke:#038048;stroke-width:1;"/></g><text fill="#000000" font-family="'Segoe UI'" font-size="14" lengthAdjust="spacing" textLength="319.8057" x="643.38" y="191.042">release(state, ti) : Result&lt;GuardPointStatus&gt;</text><g data-visibility-modifier="PUBLIC_METHOD"><ellipse cx="634.38" cy="203.9922" fill="#84BE84" rx="3" ry="3" style="stroke:#038048;stroke-width:1;"/></g><text fill="#000000" font-family="'Segoe UI'" font-size="14" lengthAdjust="spacing" textLength="200.8945" x="643.38" y="207.3389">batch_eligible() : bool = true</text><g data-visibility-modifier="PUBLIC_METHOD"><ellipse cx="634.38" cy="220.2891" fill="#84BE84" rx="3" ry="3" style="stroke:#038048;stroke-width:1;"/></g><text fill="#000000" font-family="'Segoe UI'" font-size="14" lengthAdjust="spacing" textLength="205.6729" x="643.38" y="223.6357">tracks_desired() : bool = true</text><g data-visibility-modifier="PUBLIC_METHOD"><ellipse cx="634.38" cy="236.5859" fill="#84BE84" rx="3" ry="3" style="stroke:#038048;stroke-width:1;"/></g><text fill="#000000" font-family="'Segoe UI'" font-size="14" lengthAdjust="spacing" textLength="224.3486" x="643.38" y="239.9326">interception_behavior() : Option</text><text fill="#000000" font-family="'Segoe UI'" font-size="14" lengthAdjust="spacing" textLength="52.7051" x="872.1788" y="239.9326">= None</text></g><!--class ServiceGuard--><g class="entity" data-qualified-name="ServiceGuard" data-source-line="22" id="ent0003"><rect fill="#FEFEFE" height="96.8906" rx="2.5" ry="2.5" style="stroke:#666666;stroke-width:0.5;" width="264.5674" x="7" y="315.3769"/><ellipse cx="87.6914" cy="331.3769" fill="#E8EAF6" rx="11" ry="11" style="stroke:#181818;stroke-width:1;"/><path d="M90.6602,337.0175 Q90.082,337.3144 89.4414,337.455 Q88.8008,337.6113 88.0977,337.6113 Q85.5977,337.6113 84.2695,335.9706 Q82.957,334.3144 82.957,331.1894 Q82.957,328.0644 84.2695,326.4081 Q85.5977,324.7519 88.0977,324.7519 Q88.8008,324.7519 89.4414,324.9081 Q90.0977,325.0644 90.6602,325.3613 L90.6602,328.08 Q90.0352,327.5019 89.4414,327.2363 Q88.8477,326.955 88.2227,326.955 Q86.8789,326.955 86.1914,328.0331 Q85.5039,329.0956 85.5039,331.1894 Q85.5039,333.2831 86.1914,334.3613 Q86.8789,335.4238 88.2227,335.4238 Q88.8477,335.4238 89.4414,335.1581 Q90.0352,334.8769 90.6602,334.2988 L90.6602,337.0175 Z " fill="#000000"/><text fill="#000000" font-family="'Segoe UI'" font-size="14" lengthAdjust="spacing" textLength="94.6846" x="108.1914" y="336.2236">ServiceGuard</text><line style="stroke:#666666;stroke-width:0.5;" x1="8" x2="270.5674" y1="347.3769" y2="347.3769"/><text fill="#000000" font-family="'Segoe UI'" font-size="14" lengthAdjust="spacing" textLength="171.8623" x="13" y="364.372">id = "service_watchdog"</text><text fill="#000000" font-family="'Segoe UI'" font-size="14" lengthAdjust="spacing" textLength="232.4492" x="13" y="380.6689">WaaSMedicSvc / UsoSvc / uhssvc</text><text fill="#000000" font-family="'Segoe UI'" font-size="14" lengthAdjust="spacing" textLength="252.5674" x="13" y="396.9657">Start=4, ImagePath DISABLE: prefix</text><line style="stroke:#666666;stroke-width:0.5;" x1="8" x2="270.5674" y1="404.2675" y2="404.2675"/></g><!--class HostsFirewallGuard--><g class="entity" data-qualified-name="HostsFirewallGuard" data-source-line="28" id="ent0004"><rect fill="#FEFEFE" height="96.8906" rx="2.5" ry="2.5" style="stroke:#666666;stroke-width:0.5;" width="203.0781" x="306.74" y="315.3769"/><ellipse cx="337.4201" cy="331.3769" fill="#E8EAF6" rx="11" ry="11" style="stroke:#181818;stroke-width:1;"/><path d="M340.3889,337.0175 Q339.8108,337.3144 339.1701,337.455 Q338.5295,337.6113 337.8264,337.6113 Q335.3264,337.6113 333.9983,335.9706 Q332.6858,334.3144 332.6858,331.1894 Q332.6858,328.0644 333.9983,326.4081 Q335.3264,324.7519 337.8264,324.7519 Q338.5295,324.7519 339.1701,324.9081 Q339.8264,325.0644 340.3889,325.3613 L340.3889,328.08 Q339.7639,327.5019 339.1701,327.2363 Q338.5764,326.955 337.9514,326.955 Q336.6076,326.955 335.9201,328.0331 Q335.2326,329.0956 335.2326,331.1894 Q335.2326,333.2831 335.9201,334.3613 Q336.6076,335.4238 337.9514,335.4238 Q338.5764,335.4238 339.1701,335.1581 Q339.7639,334.8769 340.3889,334.2988 L340.3889,337.0175 Z " fill="#000000"/><text fill="#000000" font-family="'Segoe UI'" font-size="14" lengthAdjust="spacing" textLength="136.2334" x="354.9046" y="336.2236">HostsFirewallGuard</text><line style="stroke:#666666;stroke-width:0.5;" x1="307.74" x2="508.8181" y1="347.3769" y2="347.3769"/><text fill="#000000" font-family="'Segoe UI'" font-size="14" lengthAdjust="spacing" textLength="141.7979" x="312.74" y="364.372">id = "hosts_firewall"</text><text fill="#000000" font-family="'Segoe UI'" font-size="14" lengthAdjust="spacing" textLength="161.7383" x="312.74" y="380.6689">hosts 127.0.0.1 entries</text><text fill="#000000" font-family="'Segoe UI'" font-size="14" lengthAdjust="spacing" textLength="191.0781" x="312.74" y="396.9657">netsh outbound block rules</text><line style="stroke:#666666;stroke-width:0.5;" x1="307.74" x2="508.8181" y1="404.2675" y2="404.2675"/></g><!--class PolicyGuard--><g class="entity" data-qualified-name="PolicyGuard" data-source-line="34" id="ent0005"><rect fill="#FEFEFE" height="113.1875" rx="2.5" ry="2.5" style="stroke:#666666;stroke-width:0.5;" width="230.0596" x="545.25" y="307.2269"/><ellipse cx="614.1733" cy="323.2269" fill="#E8EAF6" rx="11" ry="11" style="stroke:#181818;stroke-width:1;"/><path d="M617.1421,328.8675 Q616.564,329.1644 615.9233,329.305 Q615.2827,329.4613 614.5796,329.4613 Q612.0796,329.4613 610.7515,327.8206 Q609.439,326.1644 609.439,323.0394 Q609.439,319.9144 610.7515,318.2581 Q612.0796,316.6019 614.5796,316.6019 Q615.2827,316.6019 615.9233,316.7581 Q616.5796,316.9144 617.1421,317.2113 L617.1421,319.93 Q616.5171,319.3519 615.9233,319.0863 Q615.3296,318.805 614.7046,318.805 Q613.3608,318.805 612.6733,319.8831 Q611.9858,320.9456 611.9858,323.0394 Q611.9858,325.1331 612.6733,326.2113 Q613.3608,327.2738 614.7046,327.2738 Q615.3296,327.2738 615.9233,327.0081 Q616.5171,326.7269 617.1421,326.1488 L617.1421,328.8675 Z " fill="#000000"/><text fill="#000000" font-family="'Segoe UI'" font-size="14" lengthAdjust="spacing" textLength="83.7129" x="634.6733" y="328.0736">PolicyGuard</text><line style="stroke:#666666;stroke-width:0.5;" x1="546.25" x2="774.3096" y1="339.2269" y2="339.2269"/><text fill="#000000" font-family="'Segoe UI'" font-size="14" lengthAdjust="spacing" textLength="135.4678" x="551.25" y="356.222">id = "group_policy"</text><text fill="#000000" font-family="'Segoe UI'" font-size="14" lengthAdjust="spacing" textLength="212.625" x="551.25" y="372.5189">HKLM policies: NoAutoUpdate,</text><text fill="#000000" font-family="'Segoe UI'" font-size="14" lengthAdjust="spacing" textLength="218.0596" x="551.25" y="388.8157">DisableWindowsUpdateAccess,</text><text fill="#000000" font-family="'Segoe UI'" font-size="14" lengthAdjust="spacing" textLength="167.0225" x="551.25" y="405.1126">SetDisableUXWUAccess</text><line style="stroke:#666666;stroke-width:0.5;" x1="546.25" x2="774.3096" y1="412.4144" y2="412.4144"/></g><!--class TaskGuard--><g class="entity" data-qualified-name="TaskGuard" data-source-line="41" id="ent0006"><rect fill="#FEFEFE" height="113.1875" rx="2.5" ry="2.5" style="stroke:#666666;stroke-width:0.5;" width="246.2607" x="810.15" y="307.2269"/><ellipse cx="891.2926" cy="323.2269" fill="#E8EAF6" rx="11" ry="11" style="stroke:#181818;stroke-width:1;"/><path d="M894.2613,328.8675 Q893.6832,329.1644 893.0426,329.305 Q892.402,329.4613 891.6988,329.4613 Q889.1988,329.4613 887.8707,327.8206 Q886.5582,326.1644 886.5582,323.0394 Q886.5582,319.9144 887.8707,318.2581 Q889.1988,316.6019 891.6988,316.6019 Q892.402,316.6019 893.0426,316.7581 Q893.6988,316.9144 894.2613,317.2113 L894.2613,319.93 Q893.6363,319.3519 893.0426,319.0863 Q892.4488,318.805 891.8238,318.805 Q890.4801,318.805 889.7926,319.8831 Q889.1051,320.9456 889.1051,323.0394 Q889.1051,325.1331 889.7926,326.2113 Q890.4801,327.2738 891.8238,327.2738 Q892.4488,327.2738 893.0426,327.0081 Q893.6363,326.7269 894.2613,326.1488 L894.2613,328.8675 Z " fill="#000000"/><text fill="#000000" font-family="'Segoe UI'" font-size="14" lengthAdjust="spacing" textLength="75.4756" x="911.7926" y="328.0736">TaskGuard</text><line style="stroke:#666666;stroke-width:0.5;" x1="811.15" x2="1055.4107" y1="339.2269" y2="339.2269"/><text fill="#000000" font-family="'Segoe UI'" font-size="14" lengthAdjust="spacing" textLength="161.6768" x="816.15" y="356.222">id = "scheduled_tasks"</text><text fill="#000000" font-family="'Segoe UI'" font-size="14" lengthAdjust="spacing" textLength="234.2607" x="816.15" y="372.5189">UpdateOrchestrator / WaaSMedic</text><text fill="#000000" font-family="'Segoe UI'" font-size="14" lengthAdjust="spacing" textLength="140.2461" x="816.15" y="388.8157">XML: Enabled=false</text><text fill="#000000" font-family="'Segoe UI'" font-size="14" lengthAdjust="spacing" textLength="190.2715" x="816.15" y="405.1126">Command: DISABLE: prefix</text><line style="stroke:#666666;stroke-width:0.5;" x1="811.15" x2="1055.4107" y1="412.4144" y2="412.4144"/></g><!--class FallbackGuard--><g class="entity" data-qualified-name="FallbackGuard" data-source-line="48" id="ent0007"><rect fill="#FEFEFE" height="96.8906" rx="2.5" ry="2.5" style="stroke:#666666;stroke-width:0.5;" width="295.1719" x="1091.7" y="315.3769"/><ellipse cx="1184.7234" cy="331.3769" fill="#E8EAF6" rx="11" ry="11" style="stroke:#181818;stroke-width:1;"/><path d="M1187.6922,337.0175 Q1187.1141,337.3144 1186.4734,337.455 Q1185.8328,337.6113 1185.1297,337.6113 Q1182.6297,337.6113 1181.3016,335.9706 Q1179.9891,334.3144 1179.9891,331.1894 Q1179.9891,328.0644 1181.3016,326.4081 Q1182.6297,324.7519 1185.1297,324.7519 Q1185.8328,324.7519 1186.4734,324.9081 Q1187.1297,325.0644 1187.6922,325.3613 L1187.6922,328.08 Q1187.0672,327.5019 1186.4734,327.2363 Q1185.8797,326.955 1185.2547,326.955 Q1183.9109,326.955 1183.2234,328.0331 Q1182.5359,329.0956 1182.5359,331.1894 Q1182.5359,333.2831 1183.2234,334.3613 Q1183.9109,335.4238 1185.2547,335.4238 Q1185.8797,335.4238 1186.4734,335.1581 Q1187.0672,334.8769 1187.6922,334.2988 L1187.6922,337.0175 Z " fill="#000000"/><text fill="#000000" font-family="'Segoe UI'" font-size="14" lengthAdjust="spacing" textLength="100.625" x="1205.2234" y="336.2236">FallbackGuard</text><line style="stroke:#666666;stroke-width:0.5;" x1="1092.7" x2="1385.8719" y1="347.3769" y2="347.3769"/><text fill="#000000" font-family="'Segoe UI'" font-size="14" lengthAdjust="spacing" textLength="163.6729" x="1097.7" y="364.372">id = "fallback_settings"</text><text fill="#000000" font-family="'Segoe UI'" font-size="14" lengthAdjust="spacing" textLength="236.1611" x="1097.7" y="380.6689">Pause until 2051, ExcludeDrivers,</text><text fill="#000000" font-family="'Segoe UI'" font-size="14" lengthAdjust="spacing" textLength="283.1719" x="1097.7" y="396.9657">NoAutoReboot, AllowOptionalContent=0</text><line style="stroke:#666666;stroke-width:0.5;" x1="1092.7" x2="1385.8719" y1="404.2675" y2="404.2675"/></g><!--class ExtremeGuard--><g class="entity" data-qualified-name="ExtremeGuard" data-source-line="54" id="ent0008"><rect fill="#FEFEFE" height="113.1875" rx="2.5" ry="2.5" style="stroke:#666666;stroke-width:0.5;" width="262.626" x="1421.97" y="307.2269"/><ellipse cx="1497.9412" cy="323.2269" fill="#E8EAF6" rx="11" ry="11" style="stroke:#181818;stroke-width:1;"/><path d="M1500.9099,328.8675 Q1500.3318,329.1644 1499.6912,329.305 Q1499.0506,329.4613 1498.3474,329.4613 Q1495.8474,329.4613 1494.5193,327.8206 Q1493.2068,326.1644 1493.2068,323.0394 Q1493.2068,319.9144 1494.5193,318.2581 Q1495.8474,316.6019 1498.3474,316.6019 Q1499.0506,316.6019 1499.6912,316.7581 Q1500.3474,316.9144 1500.9099,317.2113 L1500.9099,319.93 Q1500.2849,319.3519 1499.6912,319.0863 Q1499.0974,318.805 1498.4724,318.805 Q1497.1287,318.805 1496.4412,319.8831 Q1495.7537,320.9456 1495.7537,323.0394 Q1495.7537,325.1331 1496.4412,326.2113 Q1497.1287,327.2738 1498.4724,327.2738 Q1499.0974,327.2738 1499.6912,327.0081 Q1500.2849,326.7269 1500.9099,326.1488 L1500.9099,328.8675 Z " fill="#000000"/><text fill="#000000" font-family="'Segoe UI'" font-size="14" lengthAdjust="spacing" textLength="102.1836" x="1518.4412" y="328.0736">ExtremeGuard</text><line style="stroke:#666666;stroke-width:0.5;" x1="1422.97" x2="1683.596" y1="339.2269" y2="339.2269"/><text fill="#000000" font-family="'Segoe UI'" font-size="14" lengthAdjust="spacing" textLength="151.9971" x="1427.97" y="356.222">id = "extreme_mode"</text><text fill="#000000" font-family="'Segoe UI'" font-size="14" lengthAdjust="spacing" textLength="151.0195" x="1427.97" y="372.5189">batch_eligible = false</text><text fill="#000000" font-family="'Segoe UI'" font-size="14" lengthAdjust="spacing" textLength="155.7979" x="1427.97" y="388.8157">tracks_desired = false</text><text fill="#000000" font-family="'Segoe UI'" font-size="14" lengthAdjust="spacing" textLength="250.626" x="1427.97" y="405.1126">SoftwareDistribution -&gt; file + icacls</text><line style="stroke:#666666;stroke-width:0.5;" x1="1422.97" x2="1683.596" y1="412.4144" y2="412.4144"/></g><!--reverse link GuardPoint to ServiceGuard--><g class="link" data-entity-1="ent0002" data-entity-2="ent0003" data-link-type="extension" data-source-line="61" id="lnk9"><path codeLine="61" d="M605.9332,204.6039 C507.6432,234.9939 399.74,269.3069 289.28,307.2269 C282.06,309.7069 274.66,312.2969 267.2,314.9469" fill="none" id="GuardPoint-backto-ServiceGuard" style="stroke:#181818;stroke-width:1;stroke-dasharray:7,7;"/><polygon fill="none" points="623.13,199.2869,604.1609,198.8716,607.7056,210.3362,623.13,199.2869" style="stroke:#181818;stroke-width:1;"/></g><!--reverse link GuardPoint to HostsFirewallGuard--><g class="link" data-entity-1="ent0002" data-entity-2="ent0004" data-link-type="extension" data-source-line="62" id="lnk10"><path codeLine="62" d="M607.2643,252.0149 C562.6443,276.8649 532.26,293.7869 494.27,314.9369" fill="none" id="GuardPoint-backto-HostsFirewallGuard" style="stroke:#181818;stroke-width:1;stroke-dasharray:7,7;"/><polygon fill="none" points="622.99,243.2569,604.345,246.773,610.1837,257.2568,622.99,243.2569" style="stroke:#181818;stroke-width:1;"/></g><!--reverse link GuardPoint to PolicyGuard--><g class="link" data-entity-1="ent0002" data-entity-2="ent0005" data-link-type="extension" data-source-line="63" id="lnk11"><path codeLine="63" d="M723.2705,262.7498 C710.3905,283.2098 706.88,288.7969 695.42,306.9969" fill="none" id="GuardPoint-backto-PolicyGuard" style="stroke:#181818;stroke-width:1;stroke-dasharray:7,7;"/><polygon fill="none" points="732.86,247.5169,718.1929,259.5533,728.3482,265.9463,732.86,247.5169" style="stroke:#181818;stroke-width:1;"/></g><!--reverse link GuardPoint to TaskGuard--><g class="link" data-entity-1="ent0002" data-entity-2="ent0006" data-link-type="extension" data-source-line="64" id="lnk12"><path codeLine="64" d="M869.8126,262.7162 C882.7926,283.1762 886.34,288.7969 897.89,306.9969" fill="none" id="GuardPoint-backto-TaskGuard" style="stroke:#181818;stroke-width:1;stroke-dasharray:7,7;"/><polygon fill="none" points="860.17,247.5169,864.7461,265.9304,874.879,259.502,860.17,247.5169" style="stroke:#181818;stroke-width:1;"/></g><!--reverse link GuardPoint to FallbackGuard--><g class="link" data-entity-1="ent0002" data-entity-2="ent0007" data-link-type="extension" data-source-line="65" id="lnk13"><path codeLine="65" d="M985.6389,239.1163 C1043.8789,267.5163 1090.63,290.3169 1141.05,314.9169" fill="none" id="GuardPoint-backto-FallbackGuard" style="stroke:#181818;stroke-width:1;stroke-dasharray:7,7;"/><polygon fill="none" points="969.46,231.2269,983.0091,244.5093,988.2687,233.7233,969.46,231.2269" style="stroke:#181818;stroke-width:1;"/></g><!--reverse link GuardPoint to ExtremeGuard--><g class="link" data-entity-1="ent0002" data-entity-2="ent0008" data-link-type="extension" data-source-line="66" id="lnk14"><path codeLine="66" d="M987.0606,191.9399 C1109.4206,221.9899 1259.27,261.1669 1404.28,307.2269 C1409.94,309.0269 1415.7,310.9169 1421.5,312.8669" fill="none" id="GuardPoint-backto-ExtremeGuard" style="stroke:#181818;stroke-width:1;stroke-dasharray:7,7;"/><polygon fill="none" points="969.58,187.6469,985.6296,197.7667,988.4916,186.113,969.58,187.6469" style="stroke:#181818;stroke-width:1;"/></g><?plantuml-src ZLHhRzem5FsUNt55fQbJML_Qs8G0YL9Og_M1cgBsM-JODyJ2YIFRWLRR_lkk4rOUsRGfN-2SOv_xj5t8l626PH0plfWRNUPYf9Ksu0pBBL6Oky2-gGGch5HkedDtnpA4LeXpZJ2xRcs9RCg4Niby3WbJ5hSOhfYr5ze8DBNBGQVJQV1xaHnCnlxRDd1eKBlN0aSDyVZBU3Zf186JJY5yBPaH4BxIYQmBZuP91omNS9qL2ZFAZJcfSni4CgSx4yRNHwQQ0EZrd3yn6C3t0E18YiFtq8LtrXd_jtBOGGHQRcJXhzp1UOfySMZ933tyW9PgsDiOXSIKTk2bSm_MqZOu-I-vGONCulyVY9dZQOHApcMyZZxMMa6V6bvYbPQXajg8Sf46nPyKLQquLdb6CQPiARMfXFSLrlDv3-Z0dSun-1a4LLiXHBEK7EkM-89AGPgMhU5evICJUjuYvecny1Q5vE6ImmdChAv_bAcrIqu2oiYu_iSsDPBDSSfS2fVNuV3YPjo5mc0YNpQ-LzewEw5aLaofVVVKar6oPhrtXS3P-UVZK_hEW8R4IBJ4vEXi2hfqiPytY9Nc2p2b8lBDRAgLvA_xBdv2YwYeEEznzUtc5gg_T7ENwZGidPuLmZUHw4jf6NNdIUQqHxR6XvoZjPuDqQq5i-UdMOrl0dXaTj4eCGsWe3X5v8YrFeBwqdj333MBELgTaqtPIV1yUzE5SUvjHB_UOu2HpZ9Qd-xVYpsXAlgdP3-4P8r75fsZfw4AOifAYr3cJYeuF_rqreRn2rUbm4iZbsYgRElQF23De6l3K2czggUCgH6zGjIT_kd6VlpY3EtrlZlMS9HfWTvuTmj8yJl1tU7V8aATk1MzXbHv6eUuz170Xm4aaiuVWUICgweBsy_7Z-FZdQblaCtHR4Ys1gh1lVMwmUoqeS5kL-aN?></g></svg>